<?xml version="1.0"?>
<svg width="1024" height="1024" xmlns="http://www.w3.org/2000/svg" xmlns:svg="http://www.w3.org/2000/svg" clip-rule="evenodd" fill-rule="evenodd" version="1.1">
 <g class="layer">
  <title>Layer 1</title>
  <g id="svg_1">
   <path d="m259.5,141.5c1.33,0.67 1.33,0.67 0,0z" fill="#434444" id="svg_2" opacity="0"/>
  </g>
  <g id="svg_3">
   <path d="m511.5,146.5c1.33,0.67 1.33,0.67 0,0z" fill="#1b1818" id="svg_4" opacity="0"/>
  </g>
  <g id="svg_5" transform="matrix(1 0 0 1 0 0)">
   <path d="m457.5,239.5c-3.76,6.79 -6.26,14.12 -7.5,22c-1.13,11.63 -1.8,23.3 -2,35c-0.89,8.88 -2.72,17.55 -5.5,26c-0.67,0 -1.33,0 -2,0c-1.04,-4.2 -2.37,-8.2 -4,-12c-8.39,-26.17 -10.56,-52.84 -6.5,-80c3.8,-20.6 12.63,-38.6 26.5,-54c3.62,-1.95 6.62,-4.62 9,-8c35.85,-25.27 73.18,-27.44 112,-6.5c0.86,0.69 1.52,1.52 2,2.5c-9.8,14.97 -19.8,29.8 -30,44.5c-7.49,-2.04 -15.15,-3.71 -23,-5c-31.15,-3.43 -54.15,8.41 -69,35.5z" fill="#ffffff" id="svg_6" opacity="0.99"/>
  </g>
  <g id="svg_7">
   <path d="m465.5,168.5c-0.74,0.13 -1.41,-0.04 -2,-0.5c0.94,-0.69 1.6,-0.53 2,0.5z" fill="#141314" id="svg_8" opacity="0.01"/>
  </g>
  <g id="svg_9">
   <path d="m456.5,176.5c-0.67,-1.33 -0.67,-1.33 0,0z" fill="#121213" id="svg_10" opacity="0.02"/>
  </g>
  <g id="svg_11">
   <path d="m508.5,204.5c1.33,0.67 1.33,0.67 0,0z" fill="#0b0c0a" id="svg_12" opacity="0.01"/>
  </g>
  <g id="svg_13">
   <path d="m531.5,205.5c1.33,0.67 1.33,0.67 0,0z" fill="#0d100c" id="svg_14" opacity="0"/>
  </g>
  <g id="svg_15">
   <path d="m545.5,209.5c1.33,0.67 1.33,0.67 0,0z" fill="#12120f" id="svg_16" opacity="0"/>
  </g>
  <g id="svg_17" transform="matrix(1 0 0 1 0 0)">
   <path d="m579.5,286.5c-2.87,0.12 -5.37,1.12 -7.5,3c-1.05,11.31 -1.72,22.64 -2,34c-2.02,4.64 -5.52,6.14 -10.5,4.5c-1.55,-1.21 -2.72,-2.71 -3.5,-4.5c-1.11,-11.35 -1.77,-22.68 -2,-34c-4.64,-1.8 -9.47,-2.8 -14.5,-3c-9.77,-2.9 -19.6,-5.9 -29.5,-9c1.34,12.01 7.84,19.85 19.5,23.5c4.48,1.41 8.98,2.58 13.5,3.5c2.46,25.33 4.62,50.66 6.5,76c-0.67,0.33 -1.33,0.67 -2,1c-13.25,-2.75 -25.91,-7.08 -38,-13c-4.6,-2.75 -9.1,-5.75 -13.5,-9c10.27,15.21 24.44,25.71 42.5,31.5c6.5,2.31 12.84,1.98 19,-1c2.88,-3.22 6.05,-6.05 9.5,-8.5c15.44,4.3 30.27,10.14 44.5,17.5c5.66,0.63 11.33,1.13 17,1.5c7.47,2.05 14.8,4.71 22,8c3.64,2.63 7.31,5.3 11,8c20.32,19.31 27.32,42.64 21,70c13.03,18.59 20.87,39.26 23.5,62c1.41,8.28 2.24,16.62 2.5,25c0,1.67 0,3.33 0,5c-21.33,0 -42.67,0 -64,0c-7.81,-10.26 -14.64,-21.26 -20.5,-33c-0.24,-8.67 0.1,-17.34 1,-26c12.28,-11.18 16.44,-24.51 12.5,-40c-4.52,21.61 -17.85,32.94 -40,34c-16.15,-1.44 -31.98,-4.44 -47.5,-9c1.52,-19.24 -1.65,-37.57 -9.5,-55c-0.43,-2.66 -1.43,-4.99 -3,-7c-0.32,2.71 0.35,5.04 2,7c0.01,9.8 -0.15,19.8 -0.5,30c-1.09,9.45 -4.26,18.12 -9.5,26c-27.64,8.97 -55.31,9.14 -83,0.5c-17.6,-6.71 -31.1,-18.21 -40.5,-34.5c-2.53,22.45 -8.03,44.11 -16.5,65c-7.43,15.35 -16.77,29.52 -28,42.5c-23,0.5 -46,0.67 -69,0.5c1.15,-20.83 3.65,-41.5 7.5,-62c3.05,-14.01 8.89,-26.68 17.5,-38c-1.87,-13.21 -0.87,-26.21 3,-39c4.09,-8.77 9.43,-16.77 16,-24c11.22,-9.58 24.22,-15.42 39,-17.5c7.69,-0.43 15.35,-1.1 23,-2c4.23,-3.74 8.56,-7.24 13,-10.5c15.03,-9.01 30.7,-16.68 47,-23c1.43,0.08 2.76,-0.25 4,-1c1.53,-6.29 2.37,-12.62 2.5,-19c-5.34,-2.42 -10.84,-4.42 -16.5,-6c3.07,-7.39 5.24,-15.05 6.5,-23c0.49,-12.67 0.32,-25.34 -0.5,-38c-0.55,-26.92 10.79,-46.92 34,-60c31.09,-11.42 57.92,-5.08 80.5,19c9.48,14.91 13.81,31.25 13,49c-1,0.57 -1.83,1.23 -2.5,2zm-42,156c1.57,2.01 2.57,4.34 3,7c-0.33,0 -0.67,0 -1,0c-1.65,-1.96 -2.32,-4.29 -2,-7z" fill="#ffffff" id="svg_18" opacity="1"/>
  </g>
  <g id="svg_19">
   <path d="m483.5,215.5c1.33,0.67 1.33,0.67 0,0z" fill="#0c0d0d" id="svg_20" opacity="0.01"/>
  </g>
  <g id="svg_21">
   <path d="m488.5,216.5c-0.67,-1.33 -0.67,-1.33 0,0z" fill="#0b0b0a" id="svg_22" opacity="0.01"/>
  </g>
  <g id="svg_23">
   <path d="m482.5,217.5c1.33,0.67 1.33,0.67 0,0z" fill="#0c0b09" id="svg_24" opacity="0"/>
  </g>
  <g id="svg_25">
   <path d="m468.5,224.5c1.33,0.67 1.33,0.67 0,0z" fill="#0b0c0a" id="svg_26" opacity="0"/>
  </g>
  <g id="svg_27">
   <path d="m457.5,239.5c1.33,0.67 1.33,0.67 0,0z" fill="#0c0c0c" id="svg_28" opacity="0"/>
  </g>
  <g id="svg_29">
   <path d="m426.5,240.5c1.33,0.67 1.33,0.67 0,0z" fill="#171715" id="svg_30" opacity="0"/>
  </g>
  <g id="svg_31">
   <path d="m579.5,253.5c1.33,0.67 1.33,0.67 0,0z" fill="#151614" id="svg_32" opacity="0"/>
  </g>
  <g id="svg_33">
   <path d="m582.5,268.5c1.33,0.67 1.33,0.67 0,0z" fill="#121313" id="svg_34" opacity="0"/>
  </g>
  <g id="svg_35">
   <path d="m452.5,272.5c1.33,0.67 1.33,0.67 0,0z" fill="#11100f" id="svg_36" opacity="0"/>
  </g>
  <g id="svg_37">
   <path d="m529.5,284.5c1.33,0.67 1.33,0.67 0,0z" fill="#0a0b0b" id="svg_38" opacity="0"/>
  </g>
  <g id="svg_39">
   <path d="m539.5,286.5c-0.67,0.67 -0.67,0.67 0,0z" fill="#0c0b08" id="svg_40" opacity="0"/>
  </g>
  <g id="svg_41">
   <path d="m579.5,286.5c1.33,0.67 1.33,0.67 0,0z" fill="#141416" id="svg_42" opacity="0.01"/>
  </g>
  <g id="svg_43">
   <path d="m552.5,290.5c1.07,0.75 1.24,1.75 0.5,3c-0.48,-0.95 -0.65,-1.95 -0.5,-3z" fill="#0e0d0c" id="svg_44" opacity="0.01"/>
  </g>
  <g id="svg_45">
   <path d="m431.5,297.5c1.33,0.67 1.33,0.67 0,0z" fill="#171715" id="svg_46" opacity="0.01"/>
  </g>
  <g id="svg_47" transform="matrix(1 0 0 1 0 0)">
   <path d="m576.5,305.5c1.47,4.24 2.13,8.74 2,13.5c-0.59,12.85 -1.42,25.68 -2.5,38.5c-3,4 -6,8 -9,12c1.97,-21.47 5.13,-42.8 9.5,-64z" fill="#ffffff" id="svg_48" opacity="0.98"/>
  </g>
  <g id="svg_49">
   <path d="m436.5,310.5c-0.67,0.67 -0.67,0.67 0,0z" fill="#161715" id="svg_50" opacity="0"/>
  </g>
  <g id="svg_51">
   <path d="m571.5,318.5c1.33,0.67 1.33,0.67 0,0z" fill="#131414" id="svg_52" opacity="0"/>
  </g>
  <g id="svg_53">
   <path d="m571.5,321.5c1.33,0.67 1.33,0.67 0,0z" fill="#121214" id="svg_54" opacity="0.01"/>
  </g>
  <g id="svg_55">
   <path d="m440.5,322.5c0.67,0 1.33,0 2,0c-0.74,2.26 -1.74,2.43 -3,0.5c0.23,-0.4 0.56,-0.56 1,-0.5z" fill="#1a1918" id="svg_56" opacity="0.02"/>
  </g>
  <g id="svg_57">
   <path d="m570.5,324.5c1.33,0.67 1.33,0.67 0,0z" fill="#131412" id="svg_58" opacity="0"/>
  </g>
  <g id="svg_59">
   <path d="m448.5,337.5c-0.67,0.67 -0.67,0.67 0,0z" fill="#161815" id="svg_60" opacity="0"/>
  </g>
  <g id="svg_61">
   <path d="m578.5,338.5c1.33,0.67 1.33,0.67 0,0z" fill="#181717" id="svg_62" opacity="0"/>
  </g>
  <g id="svg_63">
   <path d="m452.5,340.5c1.33,0.67 1.33,0.67 0,0z" fill="#131212" id="svg_64" opacity="0"/>
  </g>
  <g id="svg_65">
   <path d="m458.5,363.5c-0.67,-1.33 -0.67,-1.33 0,0z" fill="#121410" id="svg_66" opacity="0"/>
  </g>
  <g id="svg_67">
   <path d="m501.5,365.5c1.33,0.67 1.33,0.67 0,0z" fill="#080907" id="svg_68" opacity="0"/>
  </g>
  <g id="svg_69">
   <path d="m509.5,368.5c0,0.33 0,0.67 0,1c-0.67,-0.48 -0.67,-0.81 0,-1z" fill="#0d0c0c" id="svg_70" opacity="0"/>
  </g>
  <g id="svg_71">
   <path d="m509.5,369.5c1.33,0.67 1.33,0.67 0,0z" fill="#0d0e0c" id="svg_72" opacity="0"/>
  </g>
  <g id="svg_73">
   <path d="m433.5,370.5c1.33,0.67 1.33,0.67 0,0z" fill="#171715" id="svg_74" opacity="0"/>
  </g>
  <g id="svg_75">
   <path d="m436.5,370.5c1.33,0.67 1.33,0.67 0,0z" fill="#151513" id="svg_76" opacity="0"/>
  </g>
  <g id="svg_77">
   <path d="m527.5,384.5c1.33,0.67 1.33,0.67 0,0z" fill="#0d0e0c" id="svg_78" opacity="0"/>
  </g>
  <g id="svg_79">
   <path d="m411.5,386.5c-0.67,-1.33 -0.67,-1.33 0,0z" fill="#161916" id="svg_80" opacity="0"/>
  </g>
  <g id="svg_81">
   <path d="m628.5,400.5c0.75,-1.07 1.75,-1.24 3,-0.5c-0.95,0.48 -1.95,0.65 -3,0.5z" fill="#141314" id="svg_82" opacity="0.01"/>
  </g>
  <g id="svg_83">
   <path d="m359.5,401.5c0.4,-1.02 1.06,-1.19 2,-0.5c-0.59,0.46 -1.26,0.63 -2,0.5z" fill="#181718" id="svg_84" opacity="0.01"/>
  </g>
  <g id="svg_85">
   <path d="m650.5,407.5c1.33,0.67 1.33,0.67 0,0z" fill="#121612" id="svg_86" opacity="0"/>
  </g>
  <g id="svg_87">
   <path d="m336.5,416.5c-0.67,-1.33 -0.67,-1.33 0,0z" fill="#141515" id="svg_88" opacity="0.02"/>
  </g>
  <g id="svg_89">
   <path d="m661.5,415.5c1.33,0.67 1.33,0.67 0,0z" fill="#141312" id="svg_90" opacity="0"/>
  </g>
  <g id="svg_91">
   <path d="m320.5,440.5c-0.67,-1.33 -0.67,-1.33 0,0z" fill="#131415" id="svg_92" opacity="0"/>
  </g>
  <g id="svg_93">
   <path d="m545.5,470.5c1.33,0.67 1.33,0.67 0,0z" fill="#0b0e0d" id="svg_94" opacity="0.01"/>
  </g>
  <g id="svg_95">
   <path d="m685.5,478.5c1.33,0.67 1.33,0.67 0,0z" fill="#131515" id="svg_96" opacity="0"/>
  </g>
  <g id="svg_97">
   <path d="m539.5,484.5c1.33,0.67 1.33,0.67 0,0z" fill="#0e0f0c" id="svg_98" opacity="0"/>
  </g>
  <g id="svg_99">
   <path d="m407.5,495.5c1.33,0.67 1.33,0.67 0,0z" fill="#0f0f0c" id="svg_100" opacity="0"/>
  </g>
  <g id="svg_101">
   <path d="m414.5,496.5c1.33,0.67 1.33,0.67 0,0z" fill="#0e0f0f" id="svg_102" opacity="0"/>
  </g>
  <g id="svg_103">
   <path d="m410.5,498.5c-0.67,-1.33 -0.67,-1.33 0,0z" fill="#0e0f0d" id="svg_104" opacity="0.01"/>
  </g>
  <g id="svg_105">
   <path d="m407.5,498.5c1.33,0.67 1.33,0.67 0,0z" fill="#0d0e0e" id="svg_106" opacity="0.01"/>
  </g>
  <g id="svg_107" transform="matrix(1 0 0 1 0 0)">
   <path d="m410.5,498.5c13.79,17.23 31.79,27.23 54,30c10.48,2.48 21.15,2.64 32,0.5c-1.2,-0.65 -1.2,-1.15 0,-1.5c1.77,0.59 3.61,0.92 5.5,1c14.76,-2.13 29.43,-4.79 44,-8c5.12,1.32 10.28,2.32 15.5,3c16.26,4.29 32.92,5.95 50,5c-1.06,17.02 -4.06,33.68 -9,50c-59.66,1.17 -119.33,1.33 -179,0.5c-10.42,-10.24 -19.09,-21.74 -26,-34.5c5.55,-14.99 9.89,-30.33 13,-46z" fill="#ffffff" id="svg_108" opacity="1"/>
  </g>
  <g id="svg_109">
   <path d="m516.5,510.5c1.33,0.67 1.33,0.67 0,0z" fill="#0c0b09" id="svg_110" opacity="0"/>
  </g>
  <g id="svg_111">
   <path d="m396.5,520.5c1.33,0.67 1.33,0.67 0,0z" fill="#0b0e0c" id="svg_112" opacity="0.01"/>
  </g>
  <g id="svg_113">
   <path d="m561.5,522.5c1.33,0.67 1.33,0.67 0,0z" fill="#0d100d" id="svg_114" opacity="0"/>
  </g>
  <g id="svg_115">
   <path d="m464.5,527.5c1.33,0.67 1.33,0.67 0,0z" fill="#090a06" id="svg_116" opacity="0"/>
  </g>
  <g id="svg_117">
   <path d="m612.5,530.5c1.02,0.4 1.19,1.06 0.5,2c-0.46,-0.59 -0.63,-1.26 -0.5,-2z" fill="#0e0d0e" id="svg_118" opacity="0.01"/>
  </g>
  <g id="svg_119">
   <path d="m389.5,536.5c1.33,0.67 1.33,0.67 0,0z" fill="#0c0d0c" id="svg_120" opacity="0"/>
  </g>
  <g id="svg_121">
   <path d="m397.5,544.5c-0.67,0.67 -0.67,0.67 0,0z" fill="#111210" id="svg_122" opacity="0"/>
  </g>
  <g id="svg_123">
   <path d="m290.5,573.5c1.33,0.67 1.33,0.67 0,0z" fill="#171a17" id="svg_124" opacity="0"/>
  </g>
  <g id="svg_125">
   <path d="m710.5,575.5c1.33,0.67 1.33,0.67 0,0z" fill="#141617" id="svg_126" opacity="0.01"/>
  </g>
  <g id="svg_127">
   <path d="m640.5,576.5c1.33,0.67 1.33,0.67 0,0z" fill="#11120e" id="svg_128" opacity="0.02"/>
  </g>
  <g id="svg_129">
   <path d="m710.5,577.5c1.33,0.67 1.33,0.67 0,0z" fill="#171618" id="svg_130" opacity="0.02"/>
  </g>
  <g id="svg_131">
   <path d="m708.5,573.5c0.96,1.76 1.29,3.76 1,6c-21.84,0.33 -43.51,0 -65,-1c21.33,0 42.67,0 64,0c0,-1.67 0,-3.33 0,-5z" fill="#10100f" id="svg_132" opacity="0.14"/>
  </g>
  <g id="svg_133">
   <path d="m295.5,580.5c1.33,0.67 1.33,0.67 0,0z" fill="#141513" id="svg_134" opacity="0"/>
  </g>
  <g id="svg_135">
   <path d="m312.5,580.5c1.33,0.67 1.33,0.67 0,0z" fill="#0e0f0f" id="svg_136" opacity="0.01"/>
  </g>
  <g id="svg_137">
   <path d="m326.5,581.5c1.1,-1.1 2.43,-1.26 4,-0.5c-1.29,0.49 -2.63,0.66 -4,0.5z" fill="#0e0d0d" id="svg_138" opacity="0.01"/>
  </g>
  <g id="svg_139">
   <path d="m336.5,580.5c1.33,0.67 1.33,0.67 0,0z" fill="#0c0d0d" id="svg_140" opacity="0"/>
  </g>
  <g id="svg_141">
   <path d="m338.5,580.5c1.33,0.67 1.33,0.67 0,0z" fill="#0d0e0d" id="svg_142" opacity="0"/>
  </g>
  <g id="svg_143">
   <path d="m340.5,580.5c1.33,0.67 1.33,0.67 0,0z" fill="#0c0c0c" id="svg_144" opacity="0"/>
  </g>
  <g id="svg_145">
   <path d="m352.5,580.5c1.33,0.67 1.33,0.67 0,0z" fill="#0d0f0c" id="svg_146" opacity="0.01"/>
  </g>
  <g id="svg_147">
   <path d="m432.5,580.5c1.33,0.67 1.33,0.67 0,0z" fill="#0e0e0b" id="svg_148" opacity="0"/>
  </g>
  <g id="svg_149">
   <path d="m444.5,580.5c1.33,0.67 1.33,0.67 0,0z" fill="#0c0c0d" id="svg_150" opacity="0.01"/>
  </g>
  <g id="svg_151">
   <path d="m463.5,581.5c1.1,-1.1 2.43,-1.26 4,-0.5c-1.29,0.49 -2.63,0.66 -4,0.5z" fill="#0c0b0c" id="svg_152" opacity="0.01"/>
  </g>
  <g id="svg_153">
   <path d="m470.5,580.5c1.33,0.67 1.33,0.67 0,0z" fill="#0d0e0c" id="svg_154" opacity="0"/>
  </g>
  <g id="svg_155">
   <path d="m472.5,580.5c1.33,0.67 1.33,0.67 0,0z" fill="#0c0c0a" id="svg_156" opacity="0.01"/>
  </g>
  <g id="svg_157">
   <path d="m474.5,580.5c1.33,0.67 1.33,0.67 0,0z" fill="#0e0e0b" id="svg_158" opacity="0"/>
  </g>
  <g id="svg_159">
   <path d="m480.5,581.5c0.75,-1.07 1.75,-1.24 3,-0.5c-0.95,0.48 -1.95,0.65 -3,0.5z" fill="#0d0e0d" id="svg_160" opacity="0"/>
  </g>
  <g id="svg_161">
   <path d="m488.5,581.5c0.75,-1.07 1.75,-1.24 3,-0.5c-0.95,0.48 -1.95,0.65 -3,0.5z" fill="#0d0d0d" id="svg_162" opacity="0"/>
  </g>
  <g id="svg_163">
   <path d="m496.5,580.5c1.33,0.67 1.33,0.67 0,0z" fill="#0e0d0d" id="svg_164" opacity="0"/>
  </g>
  <g id="svg_165">
   <path d="m498.5,580.5c1.33,0.67 1.33,0.67 0,0z" fill="#0d0c0b" id="svg_166" opacity="0"/>
  </g>
  <g id="svg_167">
   <path d="m504.5,580.5c1.33,0.67 1.33,0.67 0,0z" fill="#0d0d0b" id="svg_168" opacity="0"/>
  </g>
  <g id="svg_169">
   <path d="m510.5,580.5c1.33,0.67 1.33,0.67 0,0z" fill="#0d0e0d" id="svg_170" opacity="0"/>
  </g>
  <g id="svg_171">
   <path d="m519.5,581.5c0.75,-1.07 1.75,-1.24 3,-0.5c-0.95,0.48 -1.95,0.65 -3,0.5z" fill="#0e0d0b" id="svg_172" opacity="0"/>
  </g>
  <g id="svg_173">
   <path d="m524.5,580.5c1.33,0.67 1.33,0.67 0,0z" fill="#0b0c0c" id="svg_174" opacity="0"/>
  </g>
  <g id="svg_175">
   <path d="m526.5,581.5c1.45,-1.11 3.11,-1.28 5,-0.5c-1.63,0.49 -3.3,0.66 -5,0.5z" fill="#0d0e0c" id="svg_176" opacity="0"/>
  </g>
  <g id="svg_177">
   <path d="m536.5,580.5c1.33,0.67 1.33,0.67 0,0z" fill="#0e100c" id="svg_178" opacity="0"/>
  </g>
  <g id="svg_179">
   <path d="m539.5,580.5c1.33,0.67 1.33,0.67 0,0z" fill="#0f0d0c" id="svg_180" opacity="0"/>
  </g>
  <g id="svg_181">
   <path d="m544.5,580.5c1.33,0.67 1.33,0.67 0,0z" fill="#0e0e0a" id="svg_182" opacity="0"/>
  </g>
  <g id="svg_183">
   <path d="m546.5,580.5c1.33,0.67 1.33,0.67 0,0z" fill="#0e0e0d" id="svg_184" opacity="0"/>
  </g>
  <g id="svg_185">
   <path d="m554.5,580.5c1.33,0.67 1.33,0.67 0,0z" fill="#0e0e0d" id="svg_186" opacity="0"/>
  </g>
  <g id="svg_187">
   <path d="m562.5,580.5c1.33,0.67 1.33,0.67 0,0z" fill="#0f0e0d" id="svg_188" opacity="0"/>
  </g>
  <g id="svg_189">
   <path d="m570.5,581.5c0.75,-1.07 1.75,-1.24 3,-0.5c-0.95,0.48 -1.95,0.65 -3,0.5z" fill="#0f0e0d" id="svg_190" opacity="0"/>
  </g>
  <g id="svg_191">
   <path d="m574.5,581.5c1.45,-1.11 3.11,-1.28 5,-0.5c-1.63,0.49 -3.3,0.66 -5,0.5z" fill="#0e0e0e" id="svg_192" opacity="0.01"/>
  </g>
  <g id="svg_193">
   <path d="m580.5,580.5c1.33,0.67 1.33,0.67 0,0z" fill="#0d0e0e" id="svg_194" opacity="0"/>
  </g>
  <g id="svg_195">
   <path d="m584.5,581.5c0.75,-1.07 1.75,-1.24 3,-0.5c-0.95,0.48 -1.95,0.65 -3,0.5z" fill="#0f0e0f" id="svg_196" opacity="0.01"/>
  </g>
  <g id="svg_197">
   <path d="m588.5,580.5c1.33,0.67 1.33,0.67 0,0z" fill="#0e0e0d" id="svg_198" opacity="0"/>
  </g>
  <g id="svg_199">
   <path d="m590.5,580.5c1.33,0.67 1.33,0.67 0,0z" fill="#0f0f0e" id="svg_200" opacity="0"/>
  </g>
  <g id="svg_201">
   <path d="m648.5,580.5c1.33,0.67 1.33,0.67 0,0z" fill="#100e0d" id="svg_202" opacity="0"/>
  </g>
  <g id="svg_203">
   <path d="m650.5,580.5c1.33,0.67 1.33,0.67 0,0z" fill="#0f0e0f" id="svg_204" opacity="0"/>
  </g>
  <g id="svg_205">
   <path d="m654.5,580.5c1.33,0.67 1.33,0.67 0,0z" fill="#0e0d0b" id="svg_206" opacity="0.01"/>
  </g>
  <g id="svg_207">
   <path d="m664.5,580.5c1.33,0.67 1.33,0.67 0,0z" fill="#0c0e0c" id="svg_208" opacity="0"/>
  </g>
  <g id="svg_209">
   <path d="m670.5,580.5c1.33,0.67 1.33,0.67 0,0z" fill="#0e0d0d" id="svg_210" opacity="0.01"/>
  </g>
  <g id="svg_211">
   <path d="m672.5,580.5c1.33,0.67 1.33,0.67 0,0z" fill="#0e100c" id="svg_212" opacity="0"/>
  </g>
  <g id="svg_213">
   <path d="m680.5,581.5c1.1,-1.1 2.43,-1.26 4,-0.5c-1.29,0.49 -2.63,0.66 -4,0.5z" fill="#0e0e0d" id="svg_214" opacity="0.01"/>
  </g>
  <g id="svg_215">
   <path d="m688.5,580.5c1.33,0.67 1.33,0.67 0,0z" fill="#0e0f0c" id="svg_216" opacity="0.01"/>
  </g>
  <g id="svg_217">
   <path d="m690.5,580.5c1.33,0.67 1.33,0.67 0,0z" fill="#0e0e0f" id="svg_218" opacity="0"/>
  </g>
  <g id="svg_219">
   <path d="m275.5,611.5c1.33,0.67 1.33,0.67 0,0z" fill="#181918" id="svg_220" opacity="0"/>
  </g>
  <g id="svg_221">
   <path d="m288.5,611.5c1.33,0.67 1.33,0.67 0,0z" fill="#141412" id="svg_222" opacity="0"/>
  </g>
  <g id="svg_223">
   <path d="m291.5,612.5c1.1,-1.1 2.43,-1.26 4,-0.5c-1.29,0.49 -2.63,0.66 -4,0.5z" fill="#131312" id="svg_224" opacity="0.01"/>
  </g>
  <g id="svg_225">
   <path d="m302.5,611.5c1.33,0.67 1.33,0.67 0,0z" fill="#111211" id="svg_226" opacity="0"/>
  </g>
  <g id="svg_227">
   <path d="m304.5,612.5c0.4,-1.02 1.06,-1.19 2,-0.5c-0.59,0.46 -1.26,0.63 -2,0.5z" fill="#11100f" id="svg_228" opacity="0.01"/>
  </g>
  <g id="svg_229">
   <path d="m307.5,612.5c0.4,-1.02 1.06,-1.19 2,-0.5c-0.59,0.46 -1.26,0.63 -2,0.5z" fill="#101010" id="svg_230" opacity="0"/>
  </g>
  <g id="svg_231">
   <path d="m323.5,611.5c1.33,0.67 1.33,0.67 0,0z" fill="#10110e" id="svg_232" opacity="0"/>
  </g>
  <g id="svg_233">
   <path d="m331.5,611.5c1.33,0.67 1.33,0.67 0,0z" fill="#0f100d" id="svg_234" opacity="0"/>
  </g>
  <g id="svg_235">
   <path d="m374.5,612.5c1.79,-1.12 3.79,-1.29 6,-0.5c-1.97,0.5 -3.97,0.66 -6,0.5z" fill="#0e0d0e" id="svg_236" opacity="0.01"/>
  </g>
  <g id="svg_237">
   <path d="m382.5,611.5c1.33,0.67 1.33,0.67 0,0z" fill="#0e0f0f" id="svg_238" opacity="0"/>
  </g>
  <g id="svg_239">
   <path d="m392.5,612.5c0.4,-1.02 1.06,-1.19 2,-0.5c-0.59,0.46 -1.26,0.63 -2,0.5z" fill="#0e0f0e" id="svg_240" opacity="0.01"/>
  </g>
  <g id="svg_241">
   <path d="m395.5,612.5c0.4,-1.02 1.06,-1.19 2,-0.5c-0.59,0.46 -1.26,0.63 -2,0.5z" fill="#0f0f0e" id="svg_242" opacity="0.01"/>
  </g>
  <g id="svg_243">
   <path d="m398.5,611.5c1.33,0.67 1.33,0.67 0,0z" fill="#0d0e0e" id="svg_244" opacity="0"/>
  </g>
  <g id="svg_245">
   <path d="m424.5,611.5c1.33,0.67 1.33,0.67 0,0z" fill="#0e100d" id="svg_246" opacity="0"/>
  </g>
  <g id="svg_247">
   <path d="m427.5,611.5c1.33,0.67 1.33,0.67 0,0z" fill="#0f110e" id="svg_248" opacity="0.02"/>
  </g>
  <g id="svg_249">
   <path d="m429.5,611.5c1.33,0.67 1.33,0.67 0,0z" fill="#0f0e0c" id="svg_250" opacity="0"/>
  </g>
  <g id="svg_251">
   <path d="m435.5,611.5c1.33,0.67 1.33,0.67 0,0z" fill="#0d0e0b" id="svg_252" opacity="0"/>
  </g>
  <g id="svg_253">
   <path d="m439.5,611.5c1.33,0.67 1.33,0.67 0,0z" fill="#0f0e0d" id="svg_254" opacity="0"/>
  </g>
  <g id="svg_255">
   <path d="m443.5,611.5c1.33,0.67 1.33,0.67 0,0z" fill="#0e0e0c" id="svg_256" opacity="0"/>
  </g>
  <g id="svg_257">
   <path d="m449.5,611.5c1.33,0.67 1.33,0.67 0,0z" fill="#0c0d0b" id="svg_258" opacity="0"/>
  </g>
  <g id="svg_259">
   <path d="m451.5,611.5c1.33,0.67 1.33,0.67 0,0z" fill="#0d0f0c" id="svg_260" opacity="0"/>
  </g>
  <g id="svg_261">
   <path d="m454.5,611.5c1.33,0.67 1.33,0.67 0,0z" fill="#0d0e0d" id="svg_262" opacity="0"/>
  </g>
  <g id="svg_263">
   <path d="m457.5,611.5c1.33,0.67 1.33,0.67 0,0z" fill="#0c0c0a" id="svg_264" opacity="0"/>
  </g>
  <g id="svg_265">
   <path d="m459.5,611.5c1.33,0.67 1.33,0.67 0,0z" fill="#0e0d0b" id="svg_266" opacity="0"/>
  </g>
  <g id="svg_267">
   <path d="m469.5,612.5c0.4,-1.02 1.06,-1.19 2,-0.5c-0.59,0.46 -1.26,0.63 -2,0.5z" fill="#0e0e0e" id="svg_268" opacity="0.01"/>
  </g>
  <g id="svg_269">
   <path d="m472.5,611.5c1.33,0.67 1.33,0.67 0,0z" fill="#0d0c0c" id="svg_270" opacity="0"/>
  </g>
  <g id="svg_271">
   <path d="m475.5,611.5c1.33,0.67 1.33,0.67 0,0z" fill="#0d0e0b" id="svg_272" opacity="0"/>
  </g>
  <g id="svg_273">
   <path d="m483.5,611.5c1.33,0.67 1.33,0.67 0,0z" fill="#0e0f0d" id="svg_274" opacity="0.01"/>
  </g>
  <g id="svg_275">
   <path d="m486.5,611.5c1.33,0.67 1.33,0.67 0,0z" fill="#0d0d0d" id="svg_276" opacity="0"/>
  </g>
  <g id="svg_277">
   <path d="m488.5,611.5c1.33,0.67 1.33,0.67 0,0z" fill="#0c0e0c" id="svg_278" opacity="0"/>
  </g>
  <g id="svg_279">
   <path d="m491.5,611.5c1.33,0.67 1.33,0.67 0,0z" fill="#0d0d0e" id="svg_280" opacity="0.01"/>
  </g>
  <g id="svg_281">
   <path d="m494.5,611.5c1.33,0.67 1.33,0.67 0,0z" fill="#0d0f0c" id="svg_282" opacity="0"/>
  </g>
  <g id="svg_283">
   <path d="m507.5,611.5c1.33,0.67 1.33,0.67 0,0z" fill="#0e0f0d" id="svg_284" opacity="0"/>
  </g>
  <g id="svg_285">
   <path d="m509.5,611.5c1.33,0.67 1.33,0.67 0,0z" fill="#100e0c" id="svg_286" opacity="0"/>
  </g>
  <g id="svg_287">
   <path d="m523.5,611.5c1.33,0.67 1.33,0.67 0,0z" fill="#0f100d" id="svg_288" opacity="0"/>
  </g>
  <g id="svg_289">
   <path d="m567.5,611.5c1.33,0.67 1.33,0.67 0,0z" fill="#0c0e0a" id="svg_290" opacity="0"/>
  </g>
  <g id="svg_291">
   <path d="m571.5,611.5c1.33,0.67 1.33,0.67 0,0z" fill="#0d0d0d" id="svg_292" opacity="0.01"/>
  </g>
  <g id="svg_293">
   <path d="m583.5,612.5c0.75,-1.07 1.75,-1.24 3,-0.5c-0.95,0.48 -1.95,0.65 -3,0.5z" fill="#0d0e0d" id="svg_294" opacity="0.01"/>
  </g>
  <g id="svg_295">
   <path d="m587.5,612.5c1.1,-1.1 2.43,-1.26 4,-0.5c-1.29,0.49 -2.63,0.66 -4,0.5z" fill="#0e0e0d" id="svg_296" opacity="0.01"/>
  </g>
  <g id="svg_297">
   <path d="m592.5,612.5c0.4,-1.02 1.06,-1.19 2,-0.5c-0.59,0.46 -1.26,0.63 -2,0.5z" fill="#0e0d0c" id="svg_298" opacity="0"/>
  </g>
  <g id="svg_299">
   <path d="m595.5,611.5c1.33,0.67 1.33,0.67 0,0z" fill="#0e0e0f" id="svg_300" opacity="0"/>
  </g>
  <g id="svg_301">
   <path d="m598.5,611.5c1.33,0.67 1.33,0.67 0,0z" fill="#0e0f0d" id="svg_302" opacity="0"/>
  </g>
  <g id="svg_303">
   <path d="m664.5,611.5c1.33,0.67 1.33,0.67 0,0z" fill="#0d0e0c" id="svg_304" opacity="0"/>
  </g>
  <g id="svg_305">
   <path d="m667.5,611.5c1.33,0.67 1.33,0.67 0,0z" fill="#0f0f0c" id="svg_306" opacity="0"/>
  </g>
  <g id="svg_307">
   <path d="m670.5,611.5c1.33,0.67 1.33,0.67 0,0z" fill="#0c0e0d" id="svg_308" opacity="0"/>
  </g>
  <g id="svg_309">
   <path d="m681.5,611.5c1.33,0.67 1.33,0.67 0,0z" fill="#0e0e0c" id="svg_310" opacity="0"/>
  </g>
  <g id="svg_311">
   <path d="m686.5,611.5c1.33,0.67 1.33,0.67 0,0z" fill="#0e100e" id="svg_312" opacity="0"/>
  </g>
  <g id="svg_313">
   <path d="m688.5,612.5c0.4,-1.02 1.06,-1.19 2,-0.5c-0.59,0.46 -1.26,0.63 -2,0.5z" fill="#10100e" id="svg_314" opacity="0.01"/>
  </g>
  <g id="svg_315">
   <path d="m770.5,611.5c1.33,0.67 1.33,0.67 0,0z" fill="#1d1c1d" id="svg_316" opacity="0"/>
  </g>
  <g id="svg_317">
   <path d="m528.5,614.5c-34.67,0 -69.33,0 -104,0c0.31,3.54 -0.02,6.88 -1,10c0,-3.67 0,-7.33 0,-11c35.17,-0.33 70.17,0 105,1z" fill="#0d0d0c" id="svg_318" opacity="0.19"/>
  </g>
  <g id="svg_319" transform="matrix(1 0 0 1 0 0)">
   <path d="m314.5,721.5c0,3.67 0,7.33 0,11c-10.33,0 -20.67,0 -31,0c-1.21,-25.73 -1.21,-51.4 0,-77c0,-3.67 0,-7.33 0,-11c-0.76,-0.77 -1.76,-1.27 -3,-1.5c1.46,-0.42 1.96,-1.26 1.5,-2.5c-11.6,-0.28 -23.26,0.05 -35,1c-0.87,-0.61 -1.37,-1.44 -1.5,-2.5c0.08,-8.46 0.41,-16.79 1,-25c35,-0.67 70,-0.67 105,0c0.21,8.43 0.21,17.27 0,26.5c-12.43,-0.46 -24.77,0.04 -37,1.5c0.35,25.96 0.35,52.46 0,79.5z" fill="#ffffff" id="svg_320" opacity="1"/>
  </g>
  <g id="svg_321" transform="matrix(1 0 0 1 0 0)">
   <path d="m373.5,614.5c10.33,0 20.67,0 31,0c0,39.33 0,78.67 0,118c-9.85,-0.33 -19.51,0.01 -29,1c-1.18,0.22 -2.18,-0.11 -3,-1c0.67,-39.89 1,-79.23 1,-118z" fill="#ffffff" id="svg_322" opacity="1"/>
  </g>
  <g id="svg_323" transform="matrix(1 0 0 1 0 0)">
   <path d="m528.5,614.5c0,8.67 0,17.33 0,26c-11.85,0.05 -23.51,0.05 -35,0c-1,27.33 -1.33,54.66 -1,82c-0.98,3.13 -1.31,6.46 -1,10c-10.67,0 -21.33,0 -32,0c0.33,-30.34 0,-60.67 -1,-91c-11.62,-0.98 -23.28,-1.31 -35,-1c0,-5.33 0,-10.67 0,-16c0.98,-3.12 1.31,-6.46 1,-10c34.67,0 69.33,0 104,0z" fill="#ffffff" id="svg_324" opacity="0.99"/>
  </g>
  <g id="svg_325" transform="matrix(1 0 0 1 0 0)">
   <path d="m612.5,726.5c-0.76,-4.28 -2.1,-8.28 -4,-12c0.09,-1 -0.25,-1.83 -1,-2.5c-15.01,-0.83 -30.01,-0.67 -45,0.5c-2.74,6.54 -5.07,13.21 -7,20c-11.18,0.33 -22.18,0 -33,-1c14.53,-39.08 29.36,-78.08 44.5,-117c12.33,-1.33 24.67,-1.33 37,0c15.44,39.22 30.61,78.56 45.5,118c-11.31,1 -22.65,1.33 -34,1c-0.21,-2.74 -1.21,-5.07 -3,-7zm-28,-79c5.59,12.61 10.09,25.61 13.5,39c-8.81,-1.1 -17.64,-1.26 -26.5,-0.5c5.03,-12.59 9.36,-25.43 13,-38.5z" fill="#ffffff" id="svg_326" opacity="0.99"/>
  </g>
  <g id="svg_327">
   <path d="m605.5,615.5c0.4,-1.02 1.06,-1.19 2,-0.5c-0.59,0.46 -1.26,0.63 -2,0.5z" fill="#10100e" id="svg_328" opacity="0"/>
  </g>
  <g id="svg_329" transform="matrix(1 0 0 1 0 0)">
   <path d="m742.5,614.5c10,0 20,0 30,0c0,39.33 0,78.67 0,118c-10,0 -20,0 -30,0c-4.42,-6.51 -9.09,-12.85 -14,-19c-4.27,-7.54 -9.27,-14.54 -15,-21c0.17,-0.99 -0.16,-1.66 -1,-2c-5.24,-8.14 -10.74,-16.14 -16.5,-24c-0.5,0.5 -1,1 -1.5,1.5c0.55,19.67 0.88,39.34 1,59c-0.03,2.61 -0.7,4.78 -2,6.5c-9.49,-0.99 -19.15,-1.33 -29,-1c0,-3.33 0,-6.67 0,-10c-0.35,-35.34 -0.68,-71.67 -1,-109c9.67,-0.17 19.34,0 29,0.5c16.51,23.17 33.01,46.34 49.5,69.5c-0.7,-22.75 -0.53,-45.75 0.5,-69z" fill="#ffffff" id="svg_330" opacity="0.99"/>
  </g>
  <g id="svg_331">
   <path d="m694.5,614.5c1.33,0.67 1.33,0.67 0,0z" fill="#10120e" id="svg_332" opacity="0.01"/>
  </g>
  <g id="svg_333">
   <path d="m373.5,614.5c5.16,-0.67 10.49,-1 16,-1c6.11,-0.12 12.11,0.38 18,1.5c-1.99,39.28 -2.66,78.78 -2,118.5c-10,0 -20,0 -30,0c9.49,-0.99 19.15,-1.33 29,-1c0,-39.33 0,-78.67 0,-118c-10.33,0 -20.67,0 -31,0z" fill="#0b0b0a" id="svg_334" opacity="0.17"/>
  </g>
  <g id="svg_335">
   <path d="m774.5,617.5c1.33,0.67 1.33,0.67 0,0z" fill="#161818" id="svg_336" opacity="0"/>
  </g>
  <g id="svg_337">
   <path d="m774.5,632.5c1.33,0.67 1.33,0.67 0,0z" fill="#0f1111" id="svg_338" opacity="0"/>
  </g>
  <g id="svg_339">
   <path d="m406.5,633.5c1.33,0.67 1.33,0.67 0,0z" fill="#0a0a0b" id="svg_340" opacity="0"/>
  </g>
  <g id="svg_341">
   <path d="m554.5,640.5c1.33,0.67 1.33,0.67 0,0z" fill="#0c0e08" id="svg_342" opacity="0.01"/>
  </g>
  <g id="svg_343">
   <path d="m406.5,641.5c1.02,0.4 1.19,1.06 0.5,2c-0.46,-0.59 -0.63,-1.26 -0.5,-2z" fill="#08090a" id="svg_344" opacity="0"/>
  </g>
  <g id="svg_345">
   <path d="m318.5,642.5c1.33,0.67 1.33,0.67 0,0z" fill="#0d0e0c" id="svg_346" opacity="0"/>
  </g>
  <g id="svg_347">
   <path d="m457.5,642.5c1.33,0.67 1.33,0.67 0,0z" fill="#0a0b0a" id="svg_348" opacity="0.01"/>
  </g>
  <g id="svg_349">
   <path d="m493.5,642.5c1.33,0.67 1.33,0.67 0,0z" fill="#0b0b0a" id="svg_350" opacity="0.01"/>
  </g>
  <g id="svg_351">
   <path d="m493.5,646.5c1.33,0.67 1.33,0.67 0,0z" fill="#090a0a" id="svg_352" opacity="0.02"/>
  </g>
  <g id="svg_353">
   <path d="m406.5,649.5c1.33,0.67 1.33,0.67 0,0z" fill="#080a09" id="svg_354" opacity="0"/>
  </g>
  <g id="svg_355">
   <path d="m283.5,644.5c0,3.67 0,7.33 0,11c-1.94,-3.5 -1.94,-7.17 0,-11z" fill="#111211" id="svg_356" opacity="0.01"/>
  </g>
  <g id="svg_357">
   <path d="m493.5,650.5c1.33,0.67 1.33,0.67 0,0z" fill="#090809" id="svg_358" opacity="0"/>
  </g>
  <g id="svg_359">
   <path d="m457.5,650.5c1.02,0.4 1.19,1.06 0.5,2c-0.46,-0.59 -0.63,-1.26 -0.5,-2z" fill="#0a0c08" id="svg_360" opacity="0"/>
  </g>
  <g id="svg_361">
   <path d="m493.5,657.5c1.33,0.67 1.33,0.67 0,0z" fill="#0a0809" id="svg_362" opacity="0"/>
  </g>
  <g id="svg_363">
   <path d="m774.5,657.5c1.33,0.67 1.33,0.67 0,0z" fill="#0e1112" id="svg_364" opacity="0"/>
  </g>
  <g id="svg_365">
   <path d="m457.5,658.5c1.02,0.4 1.19,1.06 0.5,2c-0.46,-0.59 -0.63,-1.26 -0.5,-2z" fill="#0b0c08" id="svg_366" opacity="0"/>
  </g>
  <g id="svg_367">
   <path d="m457.5,662.5c1.33,0.67 1.33,0.67 0,0z" fill="#0a0a0b" id="svg_368" opacity="0"/>
  </g>
  <g id="svg_369">
   <path d="m493.5,662.5c1.33,0.67 1.33,0.67 0,0z" fill="#090a07" id="svg_370" opacity="0.01"/>
  </g>
  <g id="svg_371">
   <path d="m742.5,614.5c10.16,-1.16 20.49,-1.33 31,-0.5c0.81,0.31 1.48,0.81 2,1.5c-0.35,1.2 -0.85,1.2 -1.5,0c-0.33,39.33 -0.67,78.67 -1,118c-0.33,0.67 -0.67,1.33 -1,2c-9.75,-1.64 -19.59,-2.64 -29.5,-3c10,0 20,0 30,0c0,-39.33 0,-78.67 0,-118c-10,0 -20,0 -30,0z" fill="#101110" id="svg_372" opacity="0.29"/>
  </g>
  <g id="svg_373">
   <path d="m281.5,674.5c1.33,0.67 1.33,0.67 0,0z" fill="#0f130e" id="svg_374" opacity="0"/>
  </g>
  <g id="svg_375">
   <path d="m493.5,678.5c1.33,0.67 1.33,0.67 0,0z" fill="#090806" id="svg_376" opacity="0"/>
  </g>
  <g id="svg_377">
   <path d="m630.5,679.5c1.33,0.67 1.33,0.67 0,0z" fill="#070a09" id="svg_378" opacity="0.01"/>
  </g>
  <g id="svg_379">
   <path d="m536.5,687.5c1.33,0.67 1.33,0.67 0,0z" fill="#0a0a0a" id="svg_380" opacity="0"/>
  </g>
  <g id="svg_381">
   <path d="m535.5,690.5c1.33,0.67 1.33,0.67 0,0z" fill="#0b0b0b" id="svg_382" opacity="0.01"/>
  </g>
  <g id="svg_383">
   <path d="m712.5,690.5c-0.67,0.67 -0.67,0.67 0,0z" fill="#070908" id="svg_384" opacity="0.01"/>
  </g>
  <g id="svg_385">
   <path d="m713.5,692.5c-0.67,0.67 -0.67,0.67 0,0z" fill="#090a04" id="svg_386" opacity="0"/>
  </g>
  <g id="svg_387">
   <path d="m493.5,694.5c1.33,0.67 1.33,0.67 0,0z" fill="#090908" id="svg_388" opacity="0"/>
  </g>
  <g id="svg_389">
   <path d="m457.5,698.5c1.02,0.4 1.19,1.06 0.5,2c-0.46,-0.59 -0.63,-1.26 -0.5,-2z" fill="#0c0c09" id="svg_390" opacity="0"/>
  </g>
  <g id="svg_391">
   <path d="m531.5,701.5c1.33,0.67 1.33,0.67 0,0z" fill="#0c0e0c" id="svg_392" opacity="0"/>
  </g>
  <g id="svg_393">
   <path d="m774.5,705.5c1.33,0.67 1.33,0.67 0,0z" fill="#121112" id="svg_394" opacity="0"/>
  </g>
  <g id="svg_395">
   <path d="m721.5,706.5c1.33,0.67 1.33,0.67 0,0z" fill="#0d0d0d" id="svg_396" opacity="0"/>
  </g>
  <g id="svg_397">
   <path d="m406.5,713.5c1.33,0.67 1.33,0.67 0,0z" fill="#0b0b0b" id="svg_398" opacity="0"/>
  </g>
  <g id="svg_399">
   <path d="m728.5,713.5c-0.67,0.67 -0.67,0.67 0,0z" fill="#0d0d0c" id="svg_400" opacity="0"/>
  </g>
  <g id="svg_401">
   <path d="m457.5,714.5c1.33,0.67 1.33,0.67 0,0z" fill="#0a0a08" id="svg_402" opacity="0"/>
  </g>
  <g id="svg_403">
   <path d="m608.5,714.5c-0.67,0.67 -0.67,0.67 0,0z" fill="#090806" id="svg_404" opacity="0.01"/>
  </g>
  <g id="svg_405">
   <path d="m608.5,718.5c1.33,0.67 1.33,0.67 0,0z" fill="#070907" id="svg_406" opacity="0.01"/>
  </g>
  <g id="svg_407">
   <path d="m406.5,721.5c1.33,0.67 1.33,0.67 0,0z" fill="#0b0c0c" id="svg_408" opacity="0"/>
  </g>
  <g id="svg_409">
   <path d="m610.5,724.5c1.33,0.67 1.33,0.67 0,0z" fill="#0c0c0b" id="svg_410" opacity="0.01"/>
  </g>
  <g id="svg_411">
   <path d="m612.5,726.5c-0.67,0.67 -0.67,0.67 0,0z" fill="#0a0b0a" id="svg_412" opacity="0.01"/>
  </g>
  <g id="svg_413">
   <path d="m457.5,728.5c1.33,0.67 1.33,0.67 0,0z" fill="#0f0e0d" id="svg_414" opacity="0.02"/>
  </g>
  <g id="svg_415">
   <path d="m406.5,729.5c1.07,0.75 1.24,1.75 0.5,3c-0.48,-0.95 -0.65,-1.95 -0.5,-3z" fill="#0f0f0f" id="svg_416" opacity="0.01"/>
  </g>
  <g id="svg_417">
   <path d="m558.5,729.5c1.33,0.67 1.33,0.67 0,0z" fill="#0c0e0d" id="svg_418" opacity="0"/>
  </g>
  <g id="svg_419">
   <path d="m316.5,730.5c1.02,0.4 1.19,1.06 0.5,2c-0.46,-0.59 -0.63,-1.26 -0.5,-2z" fill="#161614" id="svg_420" opacity="0.01"/>
  </g>
  <g id="svg_421">
   <path d="m493.5,729.5c1.07,0.75 1.24,1.75 0.5,3c-0.48,-0.95 -0.65,-1.95 -0.5,-3z" fill="#0d0e0d" id="svg_422" opacity="0.01"/>
  </g>
  <g id="svg_423">
   <path d="m457.5,731.5c1.02,0.4 1.19,1.06 0.5,2c-0.46,-0.59 -0.63,-1.26 -0.5,-2z" fill="#101110" id="svg_424" opacity="0.01"/>
  </g>
  <g id="svg_425">
   <path d="m774.5,730.5c1.02,0.4 1.19,1.06 0.5,2c-0.46,-0.59 -0.63,-1.26 -0.5,-2z" fill="#1a181a" id="svg_426" opacity="0.01"/>
  </g>
  <g id="svg_427">
   <path d="m314.5,721.5c0.98,3.8 1.32,7.8 1,12c-10.85,0.33 -21.51,-0.01 -32,-1c10.33,0 20.67,0 31,0c0,-3.67 0,-7.33 0,-11z" fill="#111111" id="svg_428" opacity="0.45"/>
  </g>
  <g id="svg_429">
   <path d="m492.5,722.5c-0.2,2.45 0.13,4.78 1,7c-0.93,1.07 -1.27,2.4 -1,4c-11.18,0.33 -22.18,0 -33,-1c10.67,0 21.33,0 32,0c-0.31,-3.54 0.02,-6.87 1,-10z" fill="#0b0b0a" id="svg_430" opacity="0.43"/>
  </g>
  <g id="svg_431">
   <path d="m522.5,731.5c10.82,1 21.82,1.33 33,1c-11.51,1.32 -23.17,1.32 -35,0c0.46,-0.8 1.12,-1.13 2,-1z" fill="#0a0a09" id="svg_432" opacity="0.44"/>
  </g>
  <g id="svg_433">
   <path d="m664.5,722.5c0,3.33 0,6.67 0,10c9.85,-0.33 19.51,0.01 29,1c-10,0 -20,0 -30,0c-0.32,-3.87 0.02,-7.54 1,-11z" fill="#0b0b0a" id="svg_434" opacity="0.42"/>
  </g>
  <g id="svg_435">
   <path d="m283.5,734.5c1.33,0.67 1.33,0.67 0,0z" fill="#191c1b" id="svg_436" opacity="0.01"/>
  </g>
  <g id="svg_437">
   <path d="m285.5,735.5c0.4,-1.02 1.06,-1.19 2,-0.5c-0.59,0.46 -1.26,0.63 -2,0.5z" fill="#1c1b1a" id="svg_438" opacity="0.02"/>
  </g>
  <g id="svg_439">
   <path d="m288.5,734.5c1.33,0.67 1.33,0.67 0,0z" fill="#161919" id="svg_440" opacity="0"/>
  </g>
  <g id="svg_441">
   <path d="m292.5,734.5c1.33,0.67 1.33,0.67 0,0z" fill="#161a17" id="svg_442" opacity="0"/>
  </g>
  <g id="svg_443">
   <path d="m308.5,734.5c1.33,0.67 1.33,0.67 0,0z" fill="#161614" id="svg_444" opacity="0.01"/>
  </g>
  <g id="svg_445">
   <path d="m313.5,734.5c1.33,0.67 1.33,0.67 0,0z" fill="#1a1a1a" id="svg_446" opacity="0"/>
  </g>
  <g id="svg_447">
   <path d="m373.5,735.5c0.75,-1.07 1.75,-1.24 3,-0.5c-0.95,0.48 -1.95,0.65 -3,0.5z" fill="#121212" id="svg_448" opacity="0.02"/>
  </g>
  <g id="svg_449">
   <path d="m399.5,735.5c1.45,-1.11 3.11,-1.28 5,-0.5c-1.63,0.49 -3.3,0.66 -5,0.5z" fill="#131111" id="svg_450" opacity="0.01"/>
  </g>
  <g id="svg_451">
   <path d="m461.5,735.5c1.1,-1.1 2.43,-1.26 4,-0.5c-1.29,0.49 -2.63,0.66 -4,0.5z" fill="#10100f" id="svg_452" opacity="0.01"/>
  </g>
  <g id="svg_453">
   <path d="m468.5,735.5c0.4,-1.02 1.06,-1.19 2,-0.5c-0.59,0.46 -1.26,0.63 -2,0.5z" fill="#0e0e0f" id="svg_454" opacity="0.01"/>
  </g>
  <g id="svg_455">
   <path d="m479.5,735.5c0.4,-1.02 1.06,-1.19 2,-0.5c-0.59,0.46 -1.26,0.63 -2,0.5z" fill="#0d0f0d" id="svg_456" opacity="0"/>
  </g>
  <g id="svg_457">
   <path d="m487.5,735.5c0.75,-1.07 1.75,-1.24 3,-0.5c-0.95,0.48 -1.95,0.65 -3,0.5z" fill="#0f0f0f" id="svg_458" opacity="0.01"/>
  </g>
  <g id="svg_459">
   <path d="m523.5,735.5c0.75,-1.07 1.75,-1.24 3,-0.5c-0.95,0.48 -1.95,0.65 -3,0.5z" fill="#0e0f0e" id="svg_460" opacity="0.01"/>
  </g>
  <g id="svg_461">
   <path d="m529.5,735.5c0.4,-1.02 1.06,-1.19 2,-0.5c-0.59,0.46 -1.26,0.63 -2,0.5z" fill="#0d0c0c" id="svg_462" opacity="0"/>
  </g>
  <g id="svg_463">
   <path d="m532.5,735.5c0.4,-1.02 1.06,-1.19 2,-0.5c-0.59,0.46 -1.26,0.63 -2,0.5z" fill="#0c0d0d" id="svg_464" opacity="0"/>
  </g>
  <g id="svg_465">
   <path d="m535.5,734.5c1.33,0.67 1.33,0.67 0,0z" fill="#100f0b" id="svg_466" opacity="0"/>
  </g>
  <g id="svg_467">
   <path d="m540.5,735.5c0.4,-1.02 1.06,-1.19 2,-0.5c-0.59,0.46 -1.26,0.63 -2,0.5z" fill="#0d0d0d" id="svg_468" opacity="0"/>
  </g>
  <g id="svg_469">
   <path d="m548.5,734.5c1.33,0.67 1.33,0.67 0,0z" fill="#0d0d0e" id="svg_470" opacity="0.01"/>
  </g>
  <g id="svg_471">
   <path d="m551.5,735.5c0.4,-1.02 1.06,-1.19 2,-0.5c-0.59,0.46 -1.26,0.63 -2,0.5z" fill="#0e100d" id="svg_472" opacity="0.01"/>
  </g>
  <g id="svg_473">
   <path d="m619.5,734.5c1.33,0.67 1.33,0.67 0,0z" fill="#0d0f0d" id="svg_474" opacity="0"/>
  </g>
  <g id="svg_475">
   <path d="m621.5,734.5c1.33,0.67 1.33,0.67 0,0z" fill="#0d0e10" id="svg_476" opacity="0"/>
  </g>
  <g id="svg_477">
   <path d="m623.5,734.5c1.33,0.67 1.33,0.67 0,0z" fill="#0e0f0d" id="svg_478" opacity="0.01"/>
  </g>
  <g id="svg_479">
   <path d="m627.5,735.5c0.4,-1.02 1.06,-1.19 2,-0.5c-0.59,0.46 -1.26,0.63 -2,0.5z" fill="#0e0e0d" id="svg_480" opacity="0"/>
  </g>
  <g id="svg_481">
   <path d="m631.5,734.5c1.33,0.67 1.33,0.67 0,0z" fill="#0d0f0e" id="svg_482" opacity="0.01"/>
  </g>
  <g id="svg_483">
   <path d="m635.5,735.5c0.4,-1.02 1.06,-1.19 2,-0.5c-0.59,0.46 -1.26,0.63 -2,0.5z" fill="#0d0e0e" id="svg_484" opacity="0"/>
  </g>
  <g id="svg_485">
   <path d="m643.5,735.5c0.4,-1.02 1.06,-1.19 2,-0.5c-0.59,0.46 -1.26,0.63 -2,0.5z" fill="#0e0d0d" id="svg_486" opacity="0.01"/>
  </g>
  <g id="svg_487">
   <path d="m664.5,734.5c1.33,0.67 1.33,0.67 0,0z" fill="#0b0b0a" id="svg_488" opacity="0.02"/>
  </g>
  <g id="svg_489">
   <path d="m667.5,735.5c0.75,-1.07 1.75,-1.24 3,-0.5c-0.95,0.48 -1.95,0.65 -3,0.5z" fill="#0e0f0f" id="svg_490" opacity="0.01"/>
  </g>
  <g id="svg_491">
   <path d="m672.5,734.5c1.33,0.67 1.33,0.67 0,0z" fill="#0e100d" id="svg_492" opacity="0.01"/>
  </g>
  <g id="svg_493">
   <path d="m674.5,734.5c1.33,0.67 1.33,0.67 0,0z" fill="#0f0d0e" id="svg_494" opacity="0.01"/>
  </g>
  <g id="svg_495">
   <path d="m676.5,734.5c1.33,0.67 1.33,0.67 0,0z" fill="#0f0f0f" id="svg_496" opacity="0"/>
  </g>
  <g id="svg_497">
   <path d="m684.5,735.5c0.4,-1.02 1.06,-1.19 2,-0.5c-0.59,0.46 -1.26,0.63 -2,0.5z" fill="#11100f" id="svg_498" opacity="0"/>
  </g>
  <g id="svg_499">
   <path d="m687.5,734.5c1.33,0.67 1.33,0.67 0,0z" fill="#121211" id="svg_500" opacity="0"/>
  </g>
  <g id="svg_501">
   <path d="m689.5,735.5c1.45,-1.11 3.11,-1.28 5,-0.5c-1.63,0.49 -3.3,0.66 -5,0.5z" fill="#111111" id="svg_502" opacity="0.01"/>
  </g>
  <g id="svg_503">
   <path d="m751.5,735.5c0.4,-1.02 1.06,-1.19 2,-0.5c-0.59,0.46 -1.26,0.63 -2,0.5z" fill="#131415" id="svg_504" opacity="0.01"/>
  </g>
  <g id="svg_505">
   <path d="m754.5,735.5c1.1,-1.1 2.43,-1.26 4,-0.5c-1.29,0.49 -2.63,0.66 -4,0.5z" fill="#161414" id="svg_506" opacity="0.01"/>
  </g>
  <g id="svg_507">
   <path d="m767.5,735.5c0.75,-1.07 1.75,-1.24 3,-0.5c-0.95,0.48 -1.95,0.65 -3,0.5z" fill="#191818" id="svg_508" opacity="0.02"/>
  </g>
  <g id="svg_509">
   <path d="m403.5,760.5c1.33,0.67 1.33,0.67 0,0z" fill="#111012" id="svg_510" opacity="0"/>
  </g>
  <g id="svg_511">
   <path d="m533.5,761.5c1.33,0.67 1.33,0.67 0,0z" fill="#100f0e" id="svg_512" opacity="0"/>
  </g>
  <g id="svg_513">
   <path d="m553.5,761.5c1.33,0.67 1.33,0.67 0,0z" fill="#0f0f10" id="svg_514" opacity="0"/>
  </g>
  <g id="svg_515">
   <path d="m571.5,762.5c1.1,-1.1 2.43,-1.26 4,-0.5c-1.29,0.49 -2.63,0.66 -4,0.5z" fill="#10100e" id="svg_516" opacity="0.01"/>
  </g>
  <g id="svg_517" transform="matrix(1 0 0 1 0 0)">
   <path d="m412.5,790.5c-10.39,-6.46 -21.05,-6.63 -32,-0.5c-10.53,9.32 -14.03,20.82 -10.5,34.5c3.78,14.24 13.12,21.58 28,22c6.93,-0.05 13.09,-2.21 18.5,-6.5c1.66,-1.49 2.66,-3.32 3,-5.5c0.89,-0.76 1.56,-1.76 2,-3c-7.97,-1 -15.97,-1.33 -24,-1c-0.29,-7.15 -0.29,-14.15 0,-21c16.34,-0.17 32.67,0 49,0.5c3,42.66 -17,62.33 -60,59c-6.92,-1.48 -13.59,-3.64 -20,-6.5c-5.29,-3.63 -9.96,-7.96 -14,-13c-7.38,-9.76 -11.05,-21.09 -11,-34c0.6,-14.51 5.6,-27.17 15,-38c15.72,-13.94 34.38,-18.44 56,-13.5c16.81,4.14 27.81,14.47 33,31c-0.14,0.77 -0.48,1.44 -1,2c-7.7,1.51 -15.37,2.85 -23,4c-1.97,-4.49 -4.97,-7.99 -9,-10.5z" fill="#ffffff" id="svg_518" opacity="0.99"/>
  </g>
  <g id="svg_519">
   <path d="m504.5,800.5c5.17,-7.66 9.84,-15.66 14,-24c2.67,-4 5.33,-8 8,-12c9.85,-0.33 19.51,0.01 29,1c-9.41,16.5 -19.08,32.83 -29,49c-3.64,4.6 -6.81,9.6 -9.5,15c-0.62,12.41 -0.62,24.75 0,37c-8.87,0.02 -17.7,0.02 -26.5,0c0,-7.33 0,-14.67 0,-22c-0.79,-5.59 -1.29,-11.25 -1.5,-17c-3.7,-5.84 -7.53,-11.51 -11.5,-17c0.17,-0.99 -0.16,-1.66 -1,-2c-7.75,-13.17 -15.75,-26.17 -24,-39c-0.74,-1.8 -1.74,-3.47 -3,-5c10.67,-1.33 21.33,-1.33 32,0c6.83,12.99 14.16,25.66 22,38c0.8,-0.46 1.13,-1.12 1,-2z" fill="#ffffff" id="svg_520" opacity="0.99"/>
  </g>
  <g id="svg_521">
   <path d="m526.5,764.5c10.16,-1.16 20.49,-1.33 31,-0.5c-0.54,0.72 -1.21,1.22 -2,1.5c-9.49,-0.99 -19.15,-1.33 -29,-1z" fill="#0e0e0d" id="svg_522" opacity="0.31"/>
  </g>
  <g id="svg_523">
   <path d="m599.5,764.5c-9.33,0 -18.67,0 -28,0c0.24,1.29 -0.1,2.29 -1,3c0,-1.33 0,-2.67 0,-4c9.85,-0.33 19.51,0.01 29,1z" fill="#0d0d0c" id="svg_524" opacity="0.32"/>
  </g>
  <g id="svg_525" transform="matrix(1 0 0 1 0 0)">
   <path d="m659.5,866.5c0,-14 0,-28 0,-42c0.13,-5.67 -0.37,-11.33 -1.5,-17c-8.58,12.83 -16.92,25.83 -25,39c-1.26,1.9 -2.93,3.23 -5,4c-0.83,-0.33 -1.67,-0.67 -2.5,-1c-9.17,-14.33 -18.33,-28.67 -27.5,-43c-1.08,1.62 -1.58,3.45 -1.5,5.5c0.47,17.36 0.8,35.36 1,54c-0.52,0.69 -1.19,1.19 -2,1.5c-7.46,0.23 -14.79,-0.11 -22,-1c-0.67,-3.33 -1.33,-6.67 -2,-10c0,-29.67 0,-59.33 0,-89c0.9,-0.71 1.24,-1.71 1,-3c9.33,0 18.67,0 28,0c9.07,15.14 18.4,30.14 28,45c10.09,-14.5 19.42,-29.5 28,-45c4.67,-0.33 9.33,-0.67 14,-1c5.17,-0.14 10.17,0.36 15,1.5c-0.3,33.61 -0.64,67.78 -1,102.5c-8.98,-0.67 -17.31,-1 -25,-1z" fill="#ffffff" id="svg_526" opacity="0.99"/>
  </g>
  <g id="svg_527">
   <path d="m567.5,765.5c2.5,0.01 2.67,0.68 0.5,2c-0.46,-0.59 -0.63,-1.26 -0.5,-2z" fill="#0e0e0e" id="svg_528" opacity="0"/>
  </g>
  <g id="svg_529">
   <path d="m452.5,769.5c-0.67,0.67 -0.67,0.67 0,0z" fill="#0f1010" id="svg_530" opacity="0"/>
  </g>
  <g id="svg_531">
   <path d="m604.5,770.5c1.33,0.67 1.33,0.67 0,0z" fill="#0b0d0d" id="svg_532" opacity="0"/>
  </g>
  <g id="svg_533">
   <path d="m518.5,776.5c-0.67,-1.33 -0.67,-1.33 0,0z" fill="#0d0c09" id="svg_534" opacity="0"/>
  </g>
  <g id="svg_535">
   <path d="m568.5,775.5c1.33,0.67 1.33,0.67 0,0z" fill="#090a08" id="svg_536" opacity="0"/>
  </g>
  <g id="svg_537">
   <path d="m356.5,777.5c-0.67,-1.33 -0.67,-1.33 0,0z" fill="#121313" id="svg_538" opacity="0"/>
  </g>
  <g id="svg_539">
   <path d="m517.5,776.5c-0.67,0.67 -0.67,0.67 0,0z" fill="#0b0d0b" id="svg_540" opacity="0.01"/>
  </g>
  <g id="svg_541">
   <path d="m515.5,778.5c1.33,0.67 1.33,0.67 0,0z" fill="#0b0d09" id="svg_542" opacity="0"/>
  </g>
  <g id="svg_543">
   <path d="m568.5,779.5c1.15,4.15 1.31,8.48 0.5,13c-0.5,-4.32 -0.67,-8.65 -0.5,-13z" fill="#090909" id="svg_544" opacity="0.01"/>
  </g>
  <g id="svg_545">
   <path d="m639.5,786.5c1.33,0.67 1.33,0.67 0,0z" fill="#080a0a" id="svg_546" opacity="0"/>
  </g>
  <g id="svg_547">
   <path d="m388.5,787.5c1.33,0.67 1.33,0.67 0,0z" fill="#110e0e" id="svg_548" opacity="0"/>
  </g>
  <g id="svg_549">
   <path d="m412.5,790.5c-0.67,0.67 -0.67,0.67 0,0z" fill="#0f0f0c" id="svg_550" opacity="0.01"/>
  </g>
  <g id="svg_551">
   <path d="m344.5,791.5c1.33,0.67 1.33,0.67 0,0z" fill="#111211" id="svg_552" opacity="0"/>
  </g>
  <g id="svg_553">
   <path d="m568.5,794.5c1.12,1.79 1.29,3.79 0.5,6c-0.5,-1.97 -0.66,-3.97 -0.5,-6z" fill="#090908" id="svg_554" opacity="0.01"/>
  </g>
  <g id="svg_555">
   <path d="m504.5,800.5c-0.67,-1.33 -0.67,-1.33 0,0z" fill="#0b0d0c" id="svg_556" opacity="0"/>
  </g>
  <g id="svg_557">
   <path d="m568.5,802.5c1.11,1.45 1.28,3.11 0.5,5c-0.49,-1.63 -0.66,-3.3 -0.5,-5z" fill="#0a0a08" id="svg_558" opacity="0.01"/>
  </g>
  <g id="svg_559">
   <path d="m371.5,804.5c1.33,0.67 1.33,0.67 0,0z" fill="#11100d" id="svg_560" opacity="0.01"/>
  </g>
  <g id="svg_561">
   <path d="m472.5,804.5c1.33,0.67 1.33,0.67 0,0z" fill="#0d0c0d" id="svg_562" opacity="0.01"/>
  </g>
  <g id="svg_563">
   <path d="m400.5,807.5c1.33,0.67 1.33,0.67 0,0z" fill="#0d0d0d" id="svg_564" opacity="0"/>
  </g>
  <g id="svg_565">
   <path d="m407.5,807.5c1.33,0.67 1.33,0.67 0,0z" fill="#0d0d0b" id="svg_566" opacity="0"/>
  </g>
  <g id="svg_567">
   <path d="m416.5,807.5c1.33,0.67 1.33,0.67 0,0z" fill="#0c0f0d" id="svg_568" opacity="0"/>
  </g>
  <g id="svg_569">
   <path d="m423.5,807.5c1.33,0.67 1.33,0.67 0,0z" fill="#0c0e0c" id="svg_570" opacity="0"/>
  </g>
  <g id="svg_571">
   <path d="m425.5,807.5c1.33,0.67 1.33,0.67 0,0z" fill="#0d0e0c" id="svg_572" opacity="0"/>
  </g>
  <g id="svg_573">
   <path d="m431.5,807.5c1.33,0.67 1.33,0.67 0,0z" fill="#0d0f0c" id="svg_574" opacity="0"/>
  </g>
  <g id="svg_575">
   <path d="m437.5,807.5c1.33,0.67 1.33,0.67 0,0z" fill="#0f0d0e" id="svg_576" opacity="0.01"/>
  </g>
  <g id="svg_577">
   <path d="m439.5,808.5c0.4,-1.02 1.06,-1.19 2,-0.5c-0.59,0.46 -1.26,0.63 -2,0.5z" fill="#100e0d" id="svg_578" opacity="0.01"/>
  </g>
  <g id="svg_579">
   <path d="m444.5,808.5c0.4,-1.02 1.06,-1.19 2,-0.5c-0.59,0.46 -1.26,0.63 -2,0.5z" fill="#0e0e10" id="svg_580" opacity="0.01"/>
  </g>
  <g id="svg_581">
   <path d="m476.5,808.5c-0.67,0.67 -0.67,0.67 0,0z" fill="#10110e" id="svg_582" opacity="0"/>
  </g>
  <g id="svg_583">
   <path d="m477.5,810.5c-0.67,0.67 -0.67,0.67 0,0z" fill="#10100d" id="svg_584" opacity="0"/>
  </g>
  <g id="svg_585">
   <path d="m568.5,810.5c1.33,0.67 1.33,0.67 0,0z" fill="#090b09" id="svg_586" opacity="0"/>
  </g>
  <g id="svg_587">
   <path d="m395.5,812.5c1.33,0.67 1.33,0.67 0,0z" fill="#0e100d" id="svg_588" opacity="0.01"/>
  </g>
  <g id="svg_589">
   <path d="m568.5,812.5c1.1,1.1 1.26,2.43 0.5,4c-0.49,-1.29 -0.66,-2.63 -0.5,-4z" fill="#0a0809" id="svg_590" opacity="0"/>
  </g>
  <g id="svg_591">
   <path d="m526.5,814.5c1.33,0.67 1.33,0.67 0,0z" fill="#0a090b" id="svg_592" opacity="0"/>
  </g>
  <g id="svg_593">
   <path d="m568.5,819.5c1.33,0.67 1.33,0.67 0,0z" fill="#0a0b09" id="svg_594" opacity="0"/>
  </g>
  <g id="svg_595">
   <path d="m340.5,820.5c1.33,0.67 1.33,0.67 0,0z" fill="#121513" id="svg_596" opacity="0"/>
  </g>
  <g id="svg_597">
   <path d="m568.5,822.5c1.07,0.75 1.24,1.75 0.5,3c-0.48,-0.95 -0.65,-1.95 -0.5,-3z" fill="#0a0a0a" id="svg_598" opacity="0"/>
  </g>
  <g id="svg_599">
   <path d="m340.5,824.5c1.33,0.67 1.33,0.67 0,0z" fill="#141414" id="svg_600" opacity="0"/>
  </g>
  <g id="svg_601">
   <path d="m568.5,826.5c1.12,1.79 1.29,3.79 0.5,6c-0.5,-1.97 -0.66,-3.97 -0.5,-6z" fill="#0b090a" id="svg_602" opacity="0.01"/>
  </g>
  <g id="svg_603">
   <path d="m608.5,827.5c1.33,0.67 1.33,0.67 0,0z" fill="#0e0e0e" id="svg_604" opacity="0.01"/>
  </g>
  <g id="svg_605">
   <path d="m658.5,824.5c0,14 0,28 0,42c-1,-0.33 -1.67,-1 -2,-2c0.67,-13.33 1.33,-26.67 2,-40z" fill="#101010" id="svg_606" opacity="0.02"/>
  </g>
  <g id="svg_607">
   <path d="m419.5,834.5c-0.67,-1.33 -0.67,-1.33 0,0z" fill="#0f110f" id="svg_608" opacity="0"/>
  </g>
  <g id="svg_609">
   <path d="m568.5,834.5c1.33,0.67 1.33,0.67 0,0z" fill="#090b0b" id="svg_610" opacity="0"/>
  </g>
  <g id="svg_611">
   <path d="m568.5,838.5c1.33,0.67 1.33,0.67 0,0z" fill="#070c09" id="svg_612" opacity="0"/>
  </g>
  <g id="svg_613">
   <path d="m344.5,839.5c1.33,0.67 1.33,0.67 0,0z" fill="#131415" id="svg_614" opacity="0"/>
  </g>
  <g id="svg_615">
   <path d="m568.5,840.5c1.33,0.67 1.33,0.67 0,0z" fill="#0a0c08" id="svg_616" opacity="0"/>
  </g>
  <g id="svg_617">
   <path d="m568.5,842.5c1.02,0.4 1.19,1.06 0.5,2c-0.46,-0.59 -0.63,-1.26 -0.5,-2z" fill="#0b0b0b" id="svg_618" opacity="0"/>
  </g>
  <g id="svg_619">
   <path d="m348.5,846.5c1.33,0.67 1.33,0.67 0,0z" fill="#171412" id="svg_620" opacity="0"/>
  </g>
  <g id="svg_621">
   <path d="m352.5,849.5c-0.67,0.67 -0.67,0.67 0,0z" fill="#151716" id="svg_622" opacity="0.01"/>
  </g>
  <g id="svg_623">
   <path d="m568.5,850.5c1.02,0.4 1.19,1.06 0.5,2c-0.46,-0.59 -0.63,-1.26 -0.5,-2z" fill="#0d0d0f" id="svg_624" opacity="0"/>
  </g>
  <g id="svg_625">
   <path d="m685.5,854.5c1.33,0.67 1.33,0.67 0,0z" fill="#171717" id="svg_626" opacity="0"/>
  </g>
  <g id="svg_627">
   <path d="m490.5,844.5c0,7.33 0,14.67 0,22c-1,0 -2,0 -3,0c1.46,-7.36 2.46,-14.69 3,-22z" fill="#151414" id="svg_628" opacity="0.02"/>
  </g>
  <g id="svg_629">
   <path d="m570.5,856.5c0.67,3.33 1.33,6.67 2,10c-1.61,1.05 -2.95,0.55 -4,-1.5c0.44,-1.76 0.94,-1.6 1.5,0.5c0.5,-2.98 0.66,-5.98 0.5,-9z" fill="#0e0d0d" id="svg_630" opacity="0.43"/>
  </g>
  <g id="svg_631">
   <path d="m568.5,859.5c1.33,0.67 1.33,0.67 0,0z" fill="#0f0f0e" id="svg_632" opacity="0"/>
  </g>
  <g id="svg_633">
   <path d="m366.5,862.5c-0.67,0.67 -0.67,0.67 0,0z" fill="#161817" id="svg_634" opacity="0.01"/>
  </g>
  <g id="svg_635">
   <path d="m597.5,863.5c1.33,0.67 1.33,0.67 0,0z" fill="#141310" id="svg_636" opacity="0.01"/>
  </g>
  <g id="svg_637">
   <path d="m656.5,864.5c-0.67,-1.33 -0.67,-1.33 0,0z" fill="#161511" id="svg_638" opacity="0"/>
  </g>
  <g id="svg_639">
   <path d="m376.5,867.5c1.33,0.67 1.33,0.67 0,0z" fill="#181716" id="svg_640" opacity="0"/>
  </g>
  <g id="svg_641">
   <path d="m487.5,868.5c1.33,0.67 1.33,0.67 0,0z" fill="#161b18" id="svg_642" opacity="0"/>
  </g>
  <g id="svg_643">
   <path d="m514.5,868.5c1.33,0.67 1.33,0.67 0,0z" fill="#191a18" id="svg_644" opacity="0.01"/>
  </g>
  <g id="svg_645">
   <path d="m662.5,868.5c1.33,0.67 1.33,0.67 0,0z" fill="#181816" id="svg_646" opacity="0"/>
  </g>
  <g id="svg_647">
   <path d="m388.5,870.5c1.33,0.67 1.33,0.67 0,0z" fill="#151615" id="svg_648" opacity="0.01"/>
  </g>
  <g id="svg_649">
   <path d="m403.5,870.5c1.33,0.67 1.33,0.67 0,0z" fill="#151515" id="svg_650" opacity="0"/>
  </g>
  <g id="svg_651">
   <path d="m307.5,933.5c1.33,0.67 1.33,0.67 0,0z" fill="#323332" id="svg_652" opacity="0"/>
  </g>
 </g>
</svg>