<?xml version="1.0"?>
<svg width="546" height="727" xmlns="http://www.w3.org/2000/svg" xmlns:svg="http://www.w3.org/2000/svg" clip-rule="evenodd" fill-rule="evenodd" version="1.1">
 <g class="layer">
  <title>Layer 1</title>
  <g id="svg_1">
   <path d="m273.5,-0.5c0.33,0 0.67,0 1,0c-0.19,0.67 -0.52,0.67 -1,0z" fill="#000000" id="svg_2" opacity="0"/>
  </g>
  <g id="svg_3" transform="matrix(1 0 0 1 0 0)">
   <path d="m219.5,92.5c-3.76,6.79 -6.26,14.12 -7.5,22c-1.13,11.63 -1.8,23.3 -2,35c-0.78,9.78 -3.11,19.11 -7,28c-1.13,-4.58 -2.63,-9.24 -4.5,-14c-8.4,-26.17 -10.56,-52.84 -6.5,-80c3.8,-20.6 12.63,-38.6 26.5,-54c3.62,-1.95 6.62,-4.62 9,-8c35.85,-25.27 73.19,-27.44 112,-6.5c0.86,0.69 1.52,1.52 2,2.5c-9.8,14.97 -19.8,29.8 -30,44.5c-7.49,-2.04 -15.15,-3.71 -23,-5c-31.15,-3.43 -54.16,8.41 -69,35.5z" fill="#ffffff" id="svg_4" opacity="0.99"/>
  </g>
  <g id="svg_5">
   <path d="m227.5,21.5c-0.74,0.13 -1.41,-0.04 -2,-0.5c0.94,-0.69 1.6,-0.52 2,0.5z" fill="#000000" id="svg_6" opacity="0.01"/>
  </g>
  <g id="svg_7">
   <path d="m218.5,29.5c-0.67,-1.33 -0.67,-1.33 0,0z" fill="#000000" id="svg_8" opacity="0.02"/>
  </g>
  <g id="svg_9">
   <path d="m270.5,57.5c1.33,0.67 1.33,0.67 0,0z" fill="#000000" id="svg_10" opacity="0.01"/>
  </g>
  <g id="svg_11">
   <path d="m293.5,58.5c1.33,0.67 1.33,0.67 0,0z" fill="#000000" id="svg_12" opacity="0"/>
  </g>
  <g id="svg_13">
   <path d="m307.5,62.5c1.33,0.67 1.33,0.67 0,0z" fill="#000000" id="svg_14" opacity="0"/>
  </g>
  <g id="svg_15" transform="matrix(1 0 0 1 0 0)">
   <path d="m341.5,139.5c-2.87,0.12 -5.37,1.12 -7.5,3c-1.06,11.31 -1.72,22.64 -2,34c-2.02,4.65 -5.52,6.15 -10.5,4.5c-1.55,-1.21 -2.71,-2.71 -3.5,-4.5c-1.11,-11.34 -1.77,-22.68 -2,-34c-4.64,-1.8 -9.47,-2.8 -14.5,-3c-9.77,-2.91 -19.6,-5.91 -29.5,-9c1.34,12.01 7.84,19.84 19.5,23.5c4.48,1.41 8.98,2.58 13.5,3.5c2.45,25.33 4.62,50.66 6.5,76c-0.67,0.33 -1.33,0.67 -2,1c-13.25,-2.75 -25.92,-7.08 -38,-13c-4.6,-2.75 -9.1,-5.75 -13.5,-9c10.27,15.21 24.44,25.71 42.5,31.5c6.5,2.31 12.84,1.98 19,-1c2.88,-3.22 6.05,-6.05 9.5,-8.5c15.44,4.3 30.27,10.14 44.5,17.5c5.66,0.63 11.33,1.13 17,1.5c7.47,2.05 14.8,4.71 22,8c3.64,2.63 7.31,5.3 11,8c20.32,19.31 27.32,42.64 21,70c13.03,18.59 20.87,39.26 23.5,62c1.56,10.3 2.73,20.63 3.5,31c-21.67,0.17 -43.34,0 -65,-0.5c-7.71,-10.58 -14.55,-21.75 -20.5,-33.5c-0.24,-8.67 0.1,-17.34 1,-26c12.28,-11.18 16.44,-24.51 12.5,-40c-4.52,21.61 -17.85,32.94 -40,34c-16.15,-1.44 -31.98,-4.44 -47.5,-9c1.52,-19.24 -1.65,-37.57 -9.5,-55c-0.44,-2.66 -1.44,-4.99 -3,-7c-0.31,2.71 0.35,5.04 2,7c0.01,9.8 -0.15,19.8 -0.5,30c-1.09,9.45 -4.26,18.12 -9.5,26c-27.64,8.97 -55.31,9.14 -83,0.5c-17.6,-6.71 -31.1,-18.21 -40.5,-34.5c-2.53,22.45 -8.03,44.11 -16.5,65c-7.43,15.35 -16.77,29.52 -28,42.5c-23,0.5 -46,0.67 -69,0.5c1.15,-20.83 3.65,-41.5 7.5,-62c3.05,-14.01 8.89,-26.68 17.5,-38c-1.87,-13.21 -0.87,-26.21 3,-39c4.09,-8.77 9.43,-16.77 16,-24c11.22,-9.58 24.22,-15.41 39,-17.5c7.69,-0.43 15.35,-1.1 23,-2c4.23,-3.74 8.56,-7.24 13,-10.5c15.03,-9.01 30.7,-16.68 47,-23c1.43,0.08 2.76,-0.25 4,-1c1.53,-6.29 2.37,-12.62 2.5,-19c-5.34,-2.42 -10.84,-4.42 -16.5,-6c3.07,-7.39 5.24,-15.05 6.5,-23c0.49,-12.67 0.32,-25.34 -0.5,-38c-0.55,-26.92 10.79,-46.92 34,-60c31.09,-11.42 57.92,-5.08 80.5,19c9.48,14.91 13.81,31.25 13,49c-1,0.57 -1.83,1.23 -2.5,2zm-42,156c1.56,2.01 2.56,4.34 3,7c-0.33,0 -0.67,0 -1,0c-1.65,-1.96 -2.31,-4.29 -2,-7z" fill="#ffffff" id="svg_16" opacity="0.99"/>
  </g>
  <g id="svg_17">
   <path d="m245.5,68.5c1.33,0.67 1.33,0.67 0,0z" fill="#000000" id="svg_18" opacity="0.01"/>
  </g>
  <g id="svg_19">
   <path d="m250.5,69.5c-0.67,-1.33 -0.67,-1.33 0,0z" fill="#000000" id="svg_20" opacity="0.01"/>
  </g>
  <g id="svg_21">
   <path d="m244.5,70.5c1.33,0.67 1.33,0.67 0,0z" fill="#000000" id="svg_22" opacity="0"/>
  </g>
  <g id="svg_23">
   <path d="m230.5,77.5c1.33,0.67 1.33,0.67 0,0z" fill="#000000" id="svg_24" opacity="0"/>
  </g>
  <g id="svg_25">
   <path d="m219.5,92.5c1.33,0.67 1.33,0.67 0,0z" fill="#000000" id="svg_26" opacity="0"/>
  </g>
  <g id="svg_27">
   <path d="m188.5,93.5c1.33,0.67 1.33,0.67 0,0z" fill="#000000" id="svg_28" opacity="0"/>
  </g>
  <g id="svg_29">
   <path d="m341.5,106.5c1.33,0.67 1.33,0.67 0,0z" fill="#000000" id="svg_30" opacity="0"/>
  </g>
  <g id="svg_31">
   <path d="m344.5,121.5c1.33,0.67 1.33,0.67 0,0z" fill="#000000" id="svg_32" opacity="0"/>
  </g>
  <g id="svg_33">
   <path d="m214.5,125.5c1.33,0.67 1.33,0.67 0,0z" fill="#000000" id="svg_34" opacity="0"/>
  </g>
  <g id="svg_35">
   <path d="m291.5,137.5c1.33,0.67 1.33,0.67 0,0z" fill="#000000" id="svg_36" opacity="0"/>
  </g>
  <g id="svg_37">
   <path d="m301.5,139.5c-0.67,0.67 -0.67,0.67 0,0z" fill="#000000" id="svg_38" opacity="0"/>
  </g>
  <g id="svg_39">
   <path d="m341.5,139.5c1.33,0.67 1.33,0.67 0,0z" fill="#000000" id="svg_40" opacity="0.01"/>
  </g>
  <g id="svg_41">
   <path d="m314.5,143.5c1.07,0.75 1.24,1.75 0.5,3c-0.48,-0.95 -0.65,-1.95 -0.5,-3z" fill="#000000" id="svg_42" opacity="0.01"/>
  </g>
  <g id="svg_43">
   <path d="m193.5,150.5c1.33,0.67 1.33,0.67 0,0z" fill="#000000" id="svg_44" opacity="0.01"/>
  </g>
  <g id="svg_45" transform="matrix(1 0 0 1 0 0)">
   <path d="m338.5,158.5c1.47,4.24 2.13,8.74 2,13.5c-0.59,12.85 -1.42,25.68 -2.5,38.5c-3,4 -6,8 -9,12c1.97,-21.47 5.13,-42.8 9.5,-64z" fill="#ffffff" id="svg_46" opacity="0.94"/>
  </g>
  <g id="svg_47">
   <path d="m198.5,163.5c-0.67,0.67 -0.67,0.67 0,0z" fill="#000000" id="svg_48" opacity="0"/>
  </g>
  <g id="svg_49">
   <path d="m333.5,171.5c1.33,0.67 1.33,0.67 0,0z" fill="#000000" id="svg_50" opacity="0"/>
  </g>
  <g id="svg_51">
   <path d="m333.5,174.5c1.33,0.67 1.33,0.67 0,0z" fill="#000000" id="svg_52" opacity="0.01"/>
  </g>
  <g id="svg_53">
   <path d="m332.5,177.5c1.33,0.67 1.33,0.67 0,0z" fill="#000000" id="svg_54" opacity="0"/>
  </g>
  <g id="svg_55">
   <path d="m210.5,190.5c-0.67,0.67 -0.67,0.67 0,0z" fill="#000000" id="svg_56" opacity="0"/>
  </g>
  <g id="svg_57">
   <path d="m340.5,191.5c1.33,0.67 1.33,0.67 0,0z" fill="#000000" id="svg_58" opacity="0"/>
  </g>
  <g id="svg_59">
   <path d="m214.5,193.5c1.33,0.67 1.33,0.67 0,0z" fill="#000000" id="svg_60" opacity="0"/>
  </g>
  <g id="svg_61">
   <path d="m220.5,216.5c-0.67,-1.33 -0.67,-1.33 0,0z" fill="#000000" id="svg_62" opacity="0"/>
  </g>
  <g id="svg_63">
   <path d="m263.5,218.5c1.33,0.67 1.33,0.67 0,0z" fill="#000000" id="svg_64" opacity="0"/>
  </g>
  <g id="svg_65">
   <path d="m271.5,221.5c0,0.33 0,0.67 0,1c-0.67,-0.48 -0.67,-0.81 0,-1z" fill="#000000" id="svg_66" opacity="0"/>
  </g>
  <g id="svg_67">
   <path d="m271.5,222.5c1.33,0.67 1.33,0.67 0,0z" fill="#000000" id="svg_68" opacity="0"/>
  </g>
  <g id="svg_69">
   <path d="m195.5,223.5c1.33,0.67 1.33,0.67 0,0z" fill="#000000" id="svg_70" opacity="0"/>
  </g>
  <g id="svg_71">
   <path d="m198.5,223.5c1.33,0.67 1.33,0.67 0,0z" fill="#000000" id="svg_72" opacity="0"/>
  </g>
  <g id="svg_73">
   <path d="m289.5,237.5c1.33,0.67 1.33,0.67 0,0z" fill="#000000" id="svg_74" opacity="0"/>
  </g>
  <g id="svg_75">
   <path d="m173.5,239.5c-0.67,-1.33 -0.67,-1.33 0,0z" fill="#000000" id="svg_76" opacity="0"/>
  </g>
  <g id="svg_77">
   <path d="m390.5,253.5c0.75,-1.07 1.75,-1.24 3,-0.5c-0.95,0.48 -1.95,0.65 -3,0.5z" fill="#000000" id="svg_78" opacity="0.01"/>
  </g>
  <g id="svg_79">
   <path d="m121.5,254.5c0.4,-1.03 1.06,-1.19 2,-0.5c-0.59,0.46 -1.26,0.63 -2,0.5z" fill="#000000" id="svg_80" opacity="0.01"/>
  </g>
  <g id="svg_81">
   <path d="m412.5,260.5c1.33,0.67 1.33,0.67 0,0z" fill="#000000" id="svg_82" opacity="0"/>
  </g>
  <g id="svg_83">
   <path d="m98.5,269.5c-0.67,-1.33 -0.67,-1.33 0,0z" fill="#000000" id="svg_84" opacity="0.02"/>
  </g>
  <g id="svg_85">
   <path d="m423.5,268.5c1.33,0.67 1.33,0.67 0,0z" fill="#000000" id="svg_86" opacity="0"/>
  </g>
  <g id="svg_87">
   <path d="m82.5,293.5c-0.67,-1.33 -0.67,-1.33 0,0z" fill="#000000" id="svg_88" opacity="0"/>
  </g>
  <g id="svg_89">
   <path d="m307.5,323.5c1.33,0.67 1.33,0.67 0,0z" fill="#000000" id="svg_90" opacity="0.01"/>
  </g>
  <g id="svg_91">
   <path d="m447.5,331.5c1.33,0.67 1.33,0.67 0,0z" fill="#000000" id="svg_92" opacity="0"/>
  </g>
  <g id="svg_93">
   <path d="m301.5,337.5c1.33,0.67 1.33,0.67 0,0z" fill="#000000" id="svg_94" opacity="0"/>
  </g>
  <g id="svg_95">
   <path d="m169.5,348.5c1.33,0.67 1.33,0.67 0,0z" fill="#000000" id="svg_96" opacity="0"/>
  </g>
  <g id="svg_97">
   <path d="m176.5,349.5c1.33,0.67 1.33,0.67 0,0z" fill="#000000" id="svg_98" opacity="0"/>
  </g>
  <g id="svg_99">
   <path d="m172.5,351.5c-0.67,-1.33 -0.67,-1.33 0,0z" fill="#000000" id="svg_100" opacity="0.01"/>
  </g>
  <g id="svg_101">
   <path d="m169.5,351.5c1.33,0.67 1.33,0.67 0,0z" fill="#000000" id="svg_102" opacity="0.01"/>
  </g>
  <g id="svg_103" transform="matrix(1 0 0 1 0 0)">
   <path d="m172.5,351.5c13.79,17.23 31.79,27.23 54,30c10.48,2.48 21.15,2.64 32,0.5c-1.2,-0.65 -1.2,-1.15 0,-1.5c1.77,0.59 3.61,0.92 5.5,1c14.76,-2.13 29.43,-4.79 44,-8c5.12,1.32 10.28,2.32 15.5,3c16.26,4.29 32.92,5.95 50,5c-1.06,17.02 -4.06,33.68 -9,50c-59.66,1.17 -119.33,1.33 -179,0.5c-10.42,-10.24 -19.09,-21.74 -26,-34.5c5.55,-14.99 9.89,-30.33 13,-46z" fill="#ffffff" id="svg_104" opacity="0.99"/>
  </g>
  <g id="svg_105">
   <path d="m278.5,363.5c1.33,0.67 1.33,0.67 0,0z" fill="#000000" id="svg_106" opacity="0"/>
  </g>
  <g id="svg_107">
   <path d="m158.5,373.5c1.33,0.67 1.33,0.67 0,0z" fill="#000000" id="svg_108" opacity="0.01"/>
  </g>
  <g id="svg_109">
   <path d="m323.5,375.5c1.33,0.67 1.33,0.67 0,0z" fill="#000000" id="svg_110" opacity="0"/>
  </g>
  <g id="svg_111">
   <path d="m226.5,380.5c1.33,0.67 1.33,0.67 0,0z" fill="#000000" id="svg_112" opacity="0"/>
  </g>
  <g id="svg_113">
   <path d="m374.5,383.5c1.02,0.4 1.19,1.06 0.5,2c-0.46,-0.59 -0.63,-1.26 -0.5,-2z" fill="#000000" id="svg_114" opacity="0.01"/>
  </g>
  <g id="svg_115">
   <path d="m151.5,389.5c1.33,0.67 1.33,0.67 0,0z" fill="#000000" id="svg_116" opacity="0"/>
  </g>
  <g id="svg_117">
   <path d="m159.5,397.5c-0.67,0.67 -0.67,0.67 0,0z" fill="#000000" id="svg_118" opacity="0"/>
  </g>
  <g id="svg_119">
   <path d="m52.5,426.5c1.33,0.67 1.33,0.67 0,0z" fill="#000000" id="svg_120" opacity="0"/>
  </g>
  <g id="svg_121">
   <path d="m472.5,428.5c1.33,0.67 1.33,0.67 0,0z" fill="#000000" id="svg_122" opacity="0.01"/>
  </g>
  <g id="svg_123">
   <path d="m402.5,429.5c1.33,0.67 1.33,0.67 0,0z" fill="#000000" id="svg_124" opacity="0.02"/>
  </g>
  <g id="svg_125">
   <path d="m472.5,430.5c1.33,0.67 1.33,0.67 0,0z" fill="#000000" id="svg_126" opacity="0.02"/>
  </g>
  <g id="svg_127">
   <path d="m57.5,433.5c1.33,0.67 1.33,0.67 0,0z" fill="#000000" id="svg_128" opacity="0"/>
  </g>
  <g id="svg_129">
   <path d="m74.5,433.5c1.33,0.67 1.33,0.67 0,0z" fill="#000000" id="svg_130" opacity="0.01"/>
  </g>
  <g id="svg_131">
   <path d="m88.5,434.5c1.1,-1.1 2.43,-1.26 4,-0.5c-1.29,0.49 -2.63,0.66 -4,0.5z" fill="#000000" id="svg_132" opacity="0.01"/>
  </g>
  <g id="svg_133">
   <path d="m98.5,433.5c1.33,0.67 1.33,0.67 0,0z" fill="#000000" id="svg_134" opacity="0"/>
  </g>
  <g id="svg_135">
   <path d="m100.5,433.5c1.33,0.67 1.33,0.67 0,0z" fill="#000000" id="svg_136" opacity="0"/>
  </g>
  <g id="svg_137">
   <path d="m102.5,433.5c1.33,0.67 1.33,0.67 0,0z" fill="#000000" id="svg_138" opacity="0"/>
  </g>
  <g id="svg_139">
   <path d="m114.5,433.5c1.33,0.67 1.33,0.67 0,0z" fill="#000000" id="svg_140" opacity="0.01"/>
  </g>
  <g id="svg_141">
   <path d="m194.5,433.5c1.33,0.67 1.33,0.67 0,0z" fill="#000000" id="svg_142" opacity="0"/>
  </g>
  <g id="svg_143">
   <path d="m206.5,433.5c1.33,0.67 1.33,0.67 0,0z" fill="#000000" id="svg_144" opacity="0.01"/>
  </g>
  <g id="svg_145">
   <path d="m225.5,434.5c1.1,-1.1 2.43,-1.26 4,-0.5c-1.29,0.49 -2.63,0.66 -4,0.5z" fill="#000000" id="svg_146" opacity="0.01"/>
  </g>
  <g id="svg_147">
   <path d="m232.5,433.5c1.33,0.67 1.33,0.67 0,0z" fill="#000000" id="svg_148" opacity="0"/>
  </g>
  <g id="svg_149">
   <path d="m234.5,433.5c1.33,0.67 1.33,0.67 0,0z" fill="#000000" id="svg_150" opacity="0.01"/>
  </g>
  <g id="svg_151">
   <path d="m236.5,433.5c1.33,0.67 1.33,0.67 0,0z" fill="#000000" id="svg_152" opacity="0"/>
  </g>
  <g id="svg_153">
   <path d="m242.5,434.5c0.75,-1.07 1.75,-1.24 3,-0.5c-0.95,0.48 -1.95,0.65 -3,0.5z" fill="#000000" id="svg_154" opacity="0"/>
  </g>
  <g id="svg_155">
   <path d="m250.5,434.5c0.75,-1.07 1.75,-1.24 3,-0.5c-0.95,0.48 -1.95,0.65 -3,0.5z" fill="#000000" id="svg_156" opacity="0.01"/>
  </g>
  <g id="svg_157">
   <path d="m258.5,433.5c1.33,0.67 1.33,0.67 0,0z" fill="#000000" id="svg_158" opacity="0"/>
  </g>
  <g id="svg_159">
   <path d="m260.5,433.5c1.33,0.67 1.33,0.67 0,0z" fill="#000000" id="svg_160" opacity="0"/>
  </g>
  <g id="svg_161">
   <path d="m266.5,433.5c1.33,0.67 1.33,0.67 0,0z" fill="#000000" id="svg_162" opacity="0"/>
  </g>
  <g id="svg_163">
   <path d="m272.5,433.5c1.33,0.67 1.33,0.67 0,0z" fill="#000000" id="svg_164" opacity="0"/>
  </g>
  <g id="svg_165">
   <path d="m281.5,434.5c0.75,-1.07 1.75,-1.24 3,-0.5c-0.95,0.48 -1.95,0.65 -3,0.5z" fill="#000000" id="svg_166" opacity="0"/>
  </g>
  <g id="svg_167">
   <path d="m286.5,433.5c1.33,0.67 1.33,0.67 0,0z" fill="#000000" id="svg_168" opacity="0"/>
  </g>
  <g id="svg_169">
   <path d="m288.5,434.5c1.45,-1.11 3.11,-1.28 5,-0.5c-1.63,0.49 -3.3,0.66 -5,0.5z" fill="#000000" id="svg_170" opacity="0"/>
  </g>
  <g id="svg_171">
   <path d="m298.5,433.5c1.33,0.67 1.33,0.67 0,0z" fill="#000000" id="svg_172" opacity="0"/>
  </g>
  <g id="svg_173">
   <path d="m301.5,433.5c1.33,0.67 1.33,0.67 0,0z" fill="#000000" id="svg_174" opacity="0"/>
  </g>
  <g id="svg_175">
   <path d="m306.5,433.5c1.33,0.67 1.33,0.67 0,0z" fill="#000000" id="svg_176" opacity="0"/>
  </g>
  <g id="svg_177">
   <path d="m308.5,433.5c1.33,0.67 1.33,0.67 0,0z" fill="#000000" id="svg_178" opacity="0"/>
  </g>
  <g id="svg_179">
   <path d="m316.5,433.5c1.33,0.67 1.33,0.67 0,0z" fill="#000000" id="svg_180" opacity="0"/>
  </g>
  <g id="svg_181">
   <path d="m324.5,433.5c1.33,0.67 1.33,0.67 0,0z" fill="#000000" id="svg_182" opacity="0"/>
  </g>
  <g id="svg_183">
   <path d="m332.5,434.5c0.75,-1.07 1.75,-1.24 3,-0.5c-0.95,0.48 -1.95,0.65 -3,0.5z" fill="#000000" id="svg_184" opacity="0"/>
  </g>
  <g id="svg_185">
   <path d="m336.5,434.5c1.45,-1.11 3.11,-1.28 5,-0.5c-1.63,0.49 -3.3,0.66 -5,0.5z" fill="#000000" id="svg_186" opacity="0.01"/>
  </g>
  <g id="svg_187">
   <path d="m342.5,433.5c1.33,0.67 1.33,0.67 0,0z" fill="#000000" id="svg_188" opacity="0"/>
  </g>
  <g id="svg_189">
   <path d="m346.5,434.5c0.75,-1.07 1.75,-1.24 3,-0.5c-0.95,0.48 -1.95,0.65 -3,0.5z" fill="#000000" id="svg_190" opacity="0.01"/>
  </g>
  <g id="svg_191">
   <path d="m350.5,433.5c1.33,0.67 1.33,0.67 0,0z" fill="#000000" id="svg_192" opacity="0"/>
  </g>
  <g id="svg_193">
   <path d="m352.5,433.5c1.33,0.67 1.33,0.67 0,0z" fill="#000000" id="svg_194" opacity="0"/>
  </g>
  <g id="svg_195">
   <path d="m410.5,433.5c1.33,0.67 1.33,0.67 0,0z" fill="#000000" id="svg_196" opacity="0"/>
  </g>
  <g id="svg_197">
   <path d="m412.5,433.5c1.33,0.67 1.33,0.67 0,0z" fill="#000000" id="svg_198" opacity="0"/>
  </g>
  <g id="svg_199">
   <path d="m416.5,433.5c1.33,0.67 1.33,0.67 0,0z" fill="#000000" id="svg_200" opacity="0.01"/>
  </g>
  <g id="svg_201">
   <path d="m426.5,433.5c1.33,0.67 1.33,0.67 0,0z" fill="#000000" id="svg_202" opacity="0"/>
  </g>
  <g id="svg_203">
   <path d="m432.5,433.5c1.33,0.67 1.33,0.67 0,0z" fill="#000000" id="svg_204" opacity="0.01"/>
  </g>
  <g id="svg_205">
   <path d="m434.5,433.5c1.33,0.67 1.33,0.67 0,0z" fill="#000000" id="svg_206" opacity="0"/>
  </g>
  <g id="svg_207">
   <path d="m442.5,434.5c1.1,-1.1 2.43,-1.26 4,-0.5c-1.29,0.49 -2.63,0.66 -4,0.5z" fill="#000000" id="svg_208" opacity="0.01"/>
  </g>
  <g id="svg_209">
   <path d="m450.5,433.5c1.33,0.67 1.33,0.67 0,0z" fill="#000000" id="svg_210" opacity="0.01"/>
  </g>
  <g id="svg_211">
   <path d="m452.5,433.5c1.33,0.67 1.33,0.67 0,0z" fill="#000000" id="svg_212" opacity="0"/>
  </g>
  <g id="svg_213">
   <path d="m37.5,464.5c1.33,0.67 1.33,0.67 0,0z" fill="#000000" id="svg_214" opacity="0"/>
  </g>
  <g id="svg_215">
   <path d="m50.5,464.5c1.33,0.67 1.33,0.67 0,0z" fill="#000000" id="svg_216" opacity="0"/>
  </g>
  <g id="svg_217">
   <path d="m53.5,465.5c1.1,-1.1 2.43,-1.26 4,-0.5c-1.29,0.49 -2.63,0.66 -4,0.5z" fill="#000000" id="svg_218" opacity="0.01"/>
  </g>
  <g id="svg_219">
   <path d="m64.5,464.5c1.33,0.67 1.33,0.67 0,0z" fill="#000000" id="svg_220" opacity="0"/>
  </g>
  <g id="svg_221">
   <path d="m66.5,465.5c0.4,-1.02 1.06,-1.19 2,-0.5c-0.59,0.46 -1.26,0.63 -2,0.5z" fill="#000000" id="svg_222" opacity="0.01"/>
  </g>
  <g id="svg_223">
   <path d="m69.5,465.5c0.4,-1.02 1.06,-1.19 2,-0.5c-0.59,0.46 -1.26,0.63 -2,0.5z" fill="#000000" id="svg_224" opacity="0"/>
  </g>
  <g id="svg_225">
   <path d="m85.5,464.5c1.33,0.67 1.33,0.67 0,0z" fill="#000000" id="svg_226" opacity="0"/>
  </g>
  <g id="svg_227">
   <path d="m93.5,464.5c1.33,0.67 1.33,0.67 0,0z" fill="#000000" id="svg_228" opacity="0"/>
  </g>
  <g id="svg_229">
   <path d="m136.5,465.5c1.79,-1.12 3.79,-1.29 6,-0.5c-1.97,0.5 -3.97,0.66 -6,0.5z" fill="#000000" id="svg_230" opacity="0.01"/>
  </g>
  <g id="svg_231">
   <path d="m144.5,464.5c1.33,0.67 1.33,0.67 0,0z" fill="#000000" id="svg_232" opacity="0"/>
  </g>
  <g id="svg_233">
   <path d="m154.5,465.5c0.4,-1.02 1.06,-1.19 2,-0.5c-0.59,0.46 -1.26,0.63 -2,0.5z" fill="#000000" id="svg_234" opacity="0.01"/>
  </g>
  <g id="svg_235">
   <path d="m157.5,465.5c0.4,-1.02 1.06,-1.19 2,-0.5c-0.59,0.46 -1.26,0.63 -2,0.5z" fill="#000000" id="svg_236" opacity="0.01"/>
  </g>
  <g id="svg_237">
   <path d="m160.5,464.5c1.33,0.67 1.33,0.67 0,0z" fill="#000000" id="svg_238" opacity="0"/>
  </g>
  <g id="svg_239">
   <path d="m186.5,464.5c1.33,0.67 1.33,0.67 0,0z" fill="#000000" id="svg_240" opacity="0"/>
  </g>
  <g id="svg_241">
   <path d="m189.5,464.5c1.33,0.67 1.33,0.67 0,0z" fill="#000000" id="svg_242" opacity="0.02"/>
  </g>
  <g id="svg_243">
   <path d="m191.5,464.5c1.33,0.67 1.33,0.67 0,0z" fill="#000000" id="svg_244" opacity="0"/>
  </g>
  <g id="svg_245">
   <path d="m197.5,464.5c1.33,0.67 1.33,0.67 0,0z" fill="#000000" id="svg_246" opacity="0"/>
  </g>
  <g id="svg_247">
   <path d="m201.5,464.5c1.33,0.67 1.33,0.67 0,0z" fill="#000000" id="svg_248" opacity="0"/>
  </g>
  <g id="svg_249">
   <path d="m205.5,464.5c1.33,0.67 1.33,0.67 0,0z" fill="#000000" id="svg_250" opacity="0"/>
  </g>
  <g id="svg_251">
   <path d="m211.5,464.5c1.33,0.67 1.33,0.67 0,0z" fill="#000000" id="svg_252" opacity="0"/>
  </g>
  <g id="svg_253">
   <path d="m213.5,464.5c1.33,0.67 1.33,0.67 0,0z" fill="#000000" id="svg_254" opacity="0"/>
  </g>
  <g id="svg_255">
   <path d="m216.5,464.5c1.33,0.67 1.33,0.67 0,0z" fill="#000000" id="svg_256" opacity="0"/>
  </g>
  <g id="svg_257">
   <path d="m219.5,464.5c1.33,0.67 1.33,0.67 0,0z" fill="#000000" id="svg_258" opacity="0"/>
  </g>
  <g id="svg_259">
   <path d="m221.5,464.5c1.33,0.67 1.33,0.67 0,0z" fill="#000000" id="svg_260" opacity="0"/>
  </g>
  <g id="svg_261">
   <path d="m231.5,465.5c0.4,-1.02 1.06,-1.19 2,-0.5c-0.59,0.46 -1.26,0.63 -2,0.5z" fill="#000000" id="svg_262" opacity="0.01"/>
  </g>
  <g id="svg_263">
   <path d="m234.5,464.5c1.33,0.67 1.33,0.67 0,0z" fill="#000000" id="svg_264" opacity="0"/>
  </g>
  <g id="svg_265">
   <path d="m237.5,464.5c1.33,0.67 1.33,0.67 0,0z" fill="#000000" id="svg_266" opacity="0"/>
  </g>
  <g id="svg_267">
   <path d="m245.5,464.5c1.33,0.67 1.33,0.67 0,0z" fill="#000000" id="svg_268" opacity="0.01"/>
  </g>
  <g id="svg_269">
   <path d="m248.5,464.5c1.33,0.67 1.33,0.67 0,0z" fill="#000000" id="svg_270" opacity="0"/>
  </g>
  <g id="svg_271">
   <path d="m250.5,464.5c1.33,0.67 1.33,0.67 0,0z" fill="#000000" id="svg_272" opacity="0"/>
  </g>
  <g id="svg_273">
   <path d="m253.5,464.5c1.33,0.67 1.33,0.67 0,0z" fill="#000000" id="svg_274" opacity="0.01"/>
  </g>
  <g id="svg_275">
   <path d="m256.5,464.5c1.33,0.67 1.33,0.67 0,0z" fill="#000000" id="svg_276" opacity="0"/>
  </g>
  <g id="svg_277">
   <path d="m269.5,464.5c1.33,0.67 1.33,0.67 0,0z" fill="#000000" id="svg_278" opacity="0"/>
  </g>
  <g id="svg_279">
   <path d="m271.5,464.5c1.33,0.67 1.33,0.67 0,0z" fill="#000000" id="svg_280" opacity="0"/>
  </g>
  <g id="svg_281">
   <path d="m285.5,464.5c1.33,0.67 1.33,0.67 0,0z" fill="#000000" id="svg_282" opacity="0"/>
  </g>
  <g id="svg_283">
   <path d="m329.5,464.5c1.33,0.67 1.33,0.67 0,0z" fill="#000000" id="svg_284" opacity="0"/>
  </g>
  <g id="svg_285">
   <path d="m333.5,464.5c1.33,0.67 1.33,0.67 0,0z" fill="#000000" id="svg_286" opacity="0.01"/>
  </g>
  <g id="svg_287">
   <path d="m345.5,465.5c0.75,-1.07 1.75,-1.24 3,-0.5c-0.95,0.48 -1.95,0.65 -3,0.5z" fill="#000000" id="svg_288" opacity="0.01"/>
  </g>
  <g id="svg_289">
   <path d="m349.5,465.5c1.1,-1.1 2.43,-1.26 4,-0.5c-1.29,0.49 -2.63,0.66 -4,0.5z" fill="#000000" id="svg_290" opacity="0.01"/>
  </g>
  <g id="svg_291">
   <path d="m354.5,465.5c0.4,-1.02 1.06,-1.19 2,-0.5c-0.59,0.46 -1.26,0.63 -2,0.5z" fill="#000000" id="svg_292" opacity="0"/>
  </g>
  <g id="svg_293">
   <path d="m357.5,464.5c1.33,0.67 1.33,0.67 0,0z" fill="#000000" id="svg_294" opacity="0"/>
  </g>
  <g id="svg_295">
   <path d="m360.5,464.5c1.33,0.67 1.33,0.67 0,0z" fill="#000000" id="svg_296" opacity="0"/>
  </g>
  <g id="svg_297">
   <path d="m426.5,464.5c1.33,0.67 1.33,0.67 0,0z" fill="#000000" id="svg_298" opacity="0"/>
  </g>
  <g id="svg_299">
   <path d="m429.5,464.5c1.33,0.67 1.33,0.67 0,0z" fill="#000000" id="svg_300" opacity="0"/>
  </g>
  <g id="svg_301">
   <path d="m432.5,464.5c1.33,0.67 1.33,0.67 0,0z" fill="#000000" id="svg_302" opacity="0"/>
  </g>
  <g id="svg_303">
   <path d="m443.5,464.5c1.33,0.67 1.33,0.67 0,0z" fill="#000000" id="svg_304" opacity="0"/>
  </g>
  <g id="svg_305">
   <path d="m448.5,464.5c1.33,0.67 1.33,0.67 0,0z" fill="#000000" id="svg_306" opacity="0"/>
  </g>
  <g id="svg_307">
   <path d="m450.5,465.5c0.4,-1.02 1.06,-1.19 2,-0.5c-0.59,0.46 -1.26,0.63 -2,0.5z" fill="#000000" id="svg_308" opacity="0.01"/>
  </g>
  <g id="svg_309">
   <path d="m532.5,464.5c1.33,0.67 1.33,0.67 0,0z" fill="#000000" id="svg_310" opacity="0"/>
  </g>
  <g id="svg_311" transform="matrix(1 0 0 1 0 0)">
   <path d="m8.5,466.5c35,-0.17 70,0 105,0.5c0.21,8.43 0.21,17.27 0,26.5c-12.43,-0.46 -24.77,0.04 -37,1.5c0.82,29.96 1.16,60.46 1,91.5c-10.92,0.32 -21.75,-0.01 -32.5,-1c-0.73,-25.62 -0.56,-50.95 0.5,-76c-1.99,-4.04 -1.99,-8.2 0,-12.5c-1,-0.33 -2,-0.67 -3,-1c1.46,-0.42 1.96,-1.26 1.5,-2.5c-11.6,-0.28 -23.26,0.05 -35,1c-0.87,-0.61 -1.37,-1.44 -1.5,-2.5c-0.15,-8.58 0.18,-17.08 1,-25.5z" fill="#ffffff" id="svg_312" opacity="0.97"/>
  </g>
  <g id="svg_313" transform="matrix(1 0 0 1 0 0)">
   <path d="m135.5,466.5c11.44,-0.46 22.77,0.04 34,1.5c-1.99,39.28 -2.66,78.78 -2,118.5c-11.02,0.33 -22.02,0 -33,-1c0.68,-40.13 1.01,-79.8 1,-119z" fill="#ffffff" id="svg_314" opacity="0.99"/>
  </g>
  <g id="svg_315" transform="matrix(1 0 0 1 0 0)">
   <path d="m255.5,582.5c-0.93,1.07 -1.27,2.4 -1,4c-11,0 -22,0 -33,0c0.33,-30.67 0,-61.34 -1,-92c-11.62,-0.98 -23.28,-1.31 -35,-1c0,-9 0,-18 0,-27c35,0 70,0 105,0c0,9 0,18 0,27c-11.85,0.05 -23.51,0.05 -35,0c-1.32,29.73 -1.32,59.4 0,89z" fill="#ffffff" id="svg_316" opacity="0.98"/>
  </g>
  <g id="svg_317" transform="matrix(1 0 0 1 0 0)">
   <path d="m374.5,579.5c-0.76,-4.28 -2.1,-8.28 -4,-12c0.09,-1 -0.25,-1.83 -1,-2.5c-15.01,-0.83 -30.01,-0.67 -45,0.5c-2.94,6.81 -5.27,13.81 -7,21c-11.69,0.33 -23.35,0 -35,-1c16.17,-39.01 31.67,-78.35 46.5,-118c12.33,-1.33 24.67,-1.33 37,0c15.44,39.22 30.61,78.56 45.5,118c-11.31,1 -22.65,1.33 -34,1c-0.21,-2.74 -1.21,-5.07 -3,-7zm-28,-79c5.59,12.61 10.09,25.61 13.5,39c-8.81,-1.1 -17.64,-1.26 -26.5,-0.5c5.03,-12.59 9.36,-25.43 13,-38.5z" fill="#ffffff" id="svg_318" opacity="0.98"/>
  </g>
  <g id="svg_319">
   <path d="m367.5,468.5c0.4,-1.02 1.06,-1.19 2,-0.5c-0.59,0.46 -1.26,0.63 -2,0.5z" fill="#000000" id="svg_320" opacity="0"/>
  </g>
  <g id="svg_321" transform="matrix(1 0 0 1 0 0)">
   <path d="m490.5,566.5c-4.27,-7.54 -9.27,-14.54 -15,-21c0.17,-0.99 -0.16,-1.66 -1,-2c-5.24,-8.14 -10.74,-16.14 -16.5,-24c-0.5,0.5 -1,1 -1.5,1.5c0.41,21.84 0.74,43.67 1,65.5c-10.67,0 -21.33,0 -32,0c0.47,-39.7 0.47,-79.7 0,-120c9.67,-0.17 19.34,0 29,0.5c16.51,23.17 33.01,46.34 49.5,69.5c-0.53,-22.59 -0.53,-45.58 0,-69c10.42,-1.15 20.92,-1.32 31.5,-0.5c0.81,0.31 1.48,0.81 2,1.5c-0.35,1.2 -0.85,1.2 -1.5,0c-0.33,39.33 -0.67,78.67 -1,118c-0.33,0.67 -0.67,1.33 -1,2c-9.58,-1.8 -19.41,-2.63 -29.5,-2.5c-4.32,-6.83 -8.99,-13.33 -14,-19.5z" fill="#ffffff" id="svg_322" opacity="0.97"/>
  </g>
  <g id="svg_323">
   <path d="m456.5,467.5c1.33,0.67 1.33,0.67 0,0z" fill="#000000" id="svg_324" opacity="0.01"/>
  </g>
  <g id="svg_325">
   <path d="m536.5,470.5c1.33,0.67 1.33,0.67 0,0z" fill="#000000" id="svg_326" opacity="0"/>
  </g>
  <g id="svg_327">
   <path d="m536.5,485.5c1.33,0.67 1.33,0.67 0,0z" fill="#000000" id="svg_328" opacity="0"/>
  </g>
  <g id="svg_329">
   <path d="m168.5,486.5c1.33,0.67 1.33,0.67 0,0z" fill="#000000" id="svg_330" opacity="0"/>
  </g>
  <g id="svg_331">
   <path d="m316.5,493.5c1.33,0.67 1.33,0.67 0,0z" fill="#000000" id="svg_332" opacity="0.01"/>
  </g>
  <g id="svg_333">
   <path d="m168.5,494.5c1.03,0.4 1.19,1.06 0.5,2c-0.46,-0.59 -0.63,-1.26 -0.5,-2z" fill="#000000" id="svg_334" opacity="0"/>
  </g>
  <g id="svg_335">
   <path d="m80.5,495.5c1.33,0.67 1.33,0.67 0,0z" fill="#000000" id="svg_336" opacity="0"/>
  </g>
  <g id="svg_337">
   <path d="m219.5,495.5c1.33,0.67 1.33,0.67 0,0z" fill="#000000" id="svg_338" opacity="0.01"/>
  </g>
  <g id="svg_339">
   <path d="m255.5,495.5c1.33,0.67 1.33,0.67 0,0z" fill="#000000" id="svg_340" opacity="0.01"/>
  </g>
  <g id="svg_341">
   <path d="m255.5,499.5c1.33,0.67 1.33,0.67 0,0z" fill="#000000" id="svg_342" opacity="0.02"/>
  </g>
  <g id="svg_343">
   <path d="m168.5,502.5c1.33,0.67 1.33,0.67 0,0z" fill="#000000" id="svg_344" opacity="0"/>
  </g>
  <g id="svg_345">
   <path d="m219.5,503.5c1.03,0.4 1.19,1.06 0.5,2c-0.46,-0.59 -0.63,-1.26 -0.5,-2z" fill="#000000" id="svg_346" opacity="0"/>
  </g>
  <g id="svg_347">
   <path d="m255.5,503.5c1.33,0.67 1.33,0.67 0,0z" fill="#000000" id="svg_348" opacity="0"/>
  </g>
  <g id="svg_349">
   <path d="m255.5,510.5c1.33,0.67 1.33,0.67 0,0z" fill="#000000" id="svg_350" opacity="0"/>
  </g>
  <g id="svg_351">
   <path d="m536.5,510.5c1.33,0.67 1.33,0.67 0,0z" fill="#000000" id="svg_352" opacity="0"/>
  </g>
  <g id="svg_353">
   <path d="m219.5,511.5c1.03,0.4 1.19,1.06 0.5,2c-0.46,-0.59 -0.63,-1.26 -0.5,-2z" fill="#000000" id="svg_354" opacity="0"/>
  </g>
  <g id="svg_355">
   <path d="m219.5,515.5c1.33,0.67 1.33,0.67 0,0z" fill="#000000" id="svg_356" opacity="0"/>
  </g>
  <g id="svg_357">
   <path d="m255.5,515.5c1.33,0.67 1.33,0.67 0,0z" fill="#000000" id="svg_358" opacity="0.01"/>
  </g>
  <g id="svg_359">
   <path d="m43.5,527.5c1.33,0.67 1.33,0.67 0,0z" fill="#000000" id="svg_360" opacity="0"/>
  </g>
  <g id="svg_361">
   <path d="m255.5,531.5c1.33,0.67 1.33,0.67 0,0z" fill="#000000" id="svg_362" opacity="0"/>
  </g>
  <g id="svg_363">
   <path d="m392.5,532.5c1.33,0.67 1.33,0.67 0,0z" fill="#000000" id="svg_364" opacity="0.01"/>
  </g>
  <g id="svg_365">
   <path d="m298.5,540.5c1.33,0.67 1.33,0.67 0,0z" fill="#000000" id="svg_366" opacity="0"/>
  </g>
  <g id="svg_367">
   <path d="m297.5,543.5c1.33,0.67 1.33,0.67 0,0z" fill="#000000" id="svg_368" opacity="0.01"/>
  </g>
  <g id="svg_369">
   <path d="m474.5,543.5c-0.67,0.67 -0.67,0.67 0,0z" fill="#000000" id="svg_370" opacity="0.01"/>
  </g>
  <g id="svg_371">
   <path d="m475.5,545.5c-0.67,0.67 -0.67,0.67 0,0z" fill="#000000" id="svg_372" opacity="0"/>
  </g>
  <g id="svg_373">
   <path d="m255.5,547.5c1.33,0.67 1.33,0.67 0,0z" fill="#000000" id="svg_374" opacity="0"/>
  </g>
  <g id="svg_375">
   <path d="m219.5,551.5c1.03,0.4 1.19,1.06 0.5,2c-0.46,-0.59 -0.63,-1.26 -0.5,-2z" fill="#000000" id="svg_376" opacity="0"/>
  </g>
  <g id="svg_377">
   <path d="m293.5,554.5c1.33,0.67 1.33,0.67 0,0z" fill="#000000" id="svg_378" opacity="0"/>
  </g>
  <g id="svg_379">
   <path d="m536.5,558.5c1.33,0.67 1.33,0.67 0,0z" fill="#000000" id="svg_380" opacity="0"/>
  </g>
  <g id="svg_381">
   <path d="m483.5,559.5c1.33,0.67 1.33,0.67 0,0z" fill="#000000" id="svg_382" opacity="0"/>
  </g>
  <g id="svg_383">
   <path d="m168.5,566.5c1.33,0.67 1.33,0.67 0,0z" fill="#000000" id="svg_384" opacity="0"/>
  </g>
  <g id="svg_385">
   <path d="m490.5,566.5c-0.67,0.67 -0.67,0.67 0,0z" fill="#000000" id="svg_386" opacity="0"/>
  </g>
  <g id="svg_387">
   <path d="m219.5,567.5c1.33,0.67 1.33,0.67 0,0z" fill="#000000" id="svg_388" opacity="0"/>
  </g>
  <g id="svg_389">
   <path d="m370.5,567.5c-0.67,0.67 -0.67,0.67 0,0z" fill="#000000" id="svg_390" opacity="0.01"/>
  </g>
  <g id="svg_391">
   <path d="m370.5,571.5c1.33,0.67 1.33,0.67 0,0z" fill="#000000" id="svg_392" opacity="0.01"/>
  </g>
  <g id="svg_393">
   <path d="m168.5,574.5c1.33,0.67 1.33,0.67 0,0z" fill="#000000" id="svg_394" opacity="0"/>
  </g>
  <g id="svg_395">
   <path d="m372.5,577.5c1.33,0.67 1.33,0.67 0,0z" fill="#000000" id="svg_396" opacity="0.01"/>
  </g>
  <g id="svg_397">
   <path d="m374.5,579.5c-0.67,0.67 -0.67,0.67 0,0z" fill="#000000" id="svg_398" opacity="0.01"/>
  </g>
  <g id="svg_399">
   <path d="m219.5,581.5c1.33,0.67 1.33,0.67 0,0z" fill="#000000" id="svg_400" opacity="0.02"/>
  </g>
  <g id="svg_401">
   <path d="m168.5,582.5c1.07,0.75 1.24,1.75 0.5,3c-0.48,-0.95 -0.65,-1.95 -0.5,-3z" fill="#000000" id="svg_402" opacity="0.01"/>
  </g>
  <g id="svg_403">
   <path d="m255.5,582.5c1.07,0.75 1.24,1.75 0.5,3c-0.48,-0.95 -0.65,-1.95 -0.5,-3z" fill="#000000" id="svg_404" opacity="0.01"/>
  </g>
  <g id="svg_405">
   <path d="m320.5,582.5c1.33,0.67 1.33,0.67 0,0z" fill="#000000" id="svg_406" opacity="0"/>
  </g>
  <g id="svg_407">
   <path d="m78.5,583.5c1.03,0.4 1.19,1.06 0.5,2c-0.46,-0.59 -0.63,-1.26 -0.5,-2z" fill="#000000" id="svg_408" opacity="0.01"/>
  </g>
  <g id="svg_409">
   <path d="m536.5,583.5c1.02,0.4 1.19,1.06 0.5,2c-0.46,-0.59 -0.63,-1.26 -0.5,-2z" fill="#000000" id="svg_410" opacity="0.01"/>
  </g>
  <g id="svg_411">
   <path d="m219.5,584.5c1.03,0.4 1.19,1.06 0.5,2c-0.46,-0.59 -0.63,-1.26 -0.5,-2z" fill="#000000" id="svg_412" opacity="0.01"/>
  </g>
  <g id="svg_413">
   <path d="m45.5,587.5c1.33,0.67 1.33,0.67 0,0z" fill="#000000" id="svg_414" opacity="0.01"/>
  </g>
  <g id="svg_415">
   <path d="m47.5,588.5c0.4,-1.02 1.06,-1.19 2,-0.5c-0.59,0.46 -1.26,0.63 -2,0.5z" fill="#232323" id="svg_416" opacity="0.02"/>
  </g>
  <g id="svg_417">
   <path d="m50.5,587.5c1.33,0.67 1.33,0.67 0,0z" fill="#000000" id="svg_418" opacity="0"/>
  </g>
  <g id="svg_419">
   <path d="m54.5,587.5c1.33,0.67 1.33,0.67 0,0z" fill="#000000" id="svg_420" opacity="0"/>
  </g>
  <g id="svg_421">
   <path d="m70.5,587.5c1.33,0.67 1.33,0.67 0,0z" fill="#000000" id="svg_422" opacity="0.01"/>
  </g>
  <g id="svg_423">
   <path d="m75.5,587.5c1.33,0.67 1.33,0.67 0,0z" fill="#000000" id="svg_424" opacity="0"/>
  </g>
  <g id="svg_425">
   <path d="m135.5,588.5c0.75,-1.07 1.75,-1.24 3,-0.5c-0.95,0.48 -1.95,0.65 -3,0.5z" fill="#000000" id="svg_426" opacity="0.01"/>
  </g>
  <g id="svg_427">
   <path d="m161.5,588.5c1.45,-1.11 3.11,-1.28 5,-0.5c-1.63,0.49 -3.3,0.66 -5,0.5z" fill="#000000" id="svg_428" opacity="0.01"/>
  </g>
  <g id="svg_429">
   <path d="m223.5,588.5c1.1,-1.1 2.43,-1.26 4,-0.5c-1.29,0.49 -2.63,0.66 -4,0.5z" fill="#000000" id="svg_430" opacity="0.01"/>
  </g>
  <g id="svg_431">
   <path d="m230.5,588.5c0.4,-1.02 1.06,-1.19 2,-0.5c-0.59,0.46 -1.26,0.63 -2,0.5z" fill="#000000" id="svg_432" opacity="0.01"/>
  </g>
  <g id="svg_433">
   <path d="m241.5,588.5c0.4,-1.02 1.06,-1.19 2,-0.5c-0.59,0.46 -1.26,0.63 -2,0.5z" fill="#000000" id="svg_434" opacity="0"/>
  </g>
  <g id="svg_435">
   <path d="m249.5,588.5c0.75,-1.07 1.75,-1.24 3,-0.5c-0.95,0.48 -1.95,0.65 -3,0.5z" fill="#000000" id="svg_436" opacity="0.01"/>
  </g>
  <g id="svg_437">
   <path d="m285.5,588.5c0.75,-1.07 1.75,-1.24 3,-0.5c-0.95,0.48 -1.95,0.65 -3,0.5z" fill="#000000" id="svg_438" opacity="0.01"/>
  </g>
  <g id="svg_439">
   <path d="m291.5,588.5c0.4,-1.02 1.06,-1.19 2,-0.5c-0.59,0.46 -1.26,0.63 -2,0.5z" fill="#000000" id="svg_440" opacity="0"/>
  </g>
  <g id="svg_441">
   <path d="m294.5,588.5c0.4,-1.02 1.06,-1.19 2,-0.5c-0.59,0.46 -1.26,0.63 -2,0.5z" fill="#000000" id="svg_442" opacity="0.01"/>
  </g>
  <g id="svg_443">
   <path d="m297.5,587.5c1.33,0.67 1.33,0.67 0,0z" fill="#000000" id="svg_444" opacity="0"/>
  </g>
  <g id="svg_445">
   <path d="m302.5,588.5c0.4,-1.02 1.06,-1.19 2,-0.5c-0.59,0.46 -1.26,0.63 -2,0.5z" fill="#000000" id="svg_446" opacity="0"/>
  </g>
  <g id="svg_447">
   <path d="m310.5,587.5c1.33,0.67 1.33,0.67 0,0z" fill="#000000" id="svg_448" opacity="0.01"/>
  </g>
  <g id="svg_449">
   <path d="m313.5,588.5c0.4,-1.02 1.06,-1.19 2,-0.5c-0.59,0.46 -1.26,0.63 -2,0.5z" fill="#000000" id="svg_450" opacity="0.01"/>
  </g>
  <g id="svg_451">
   <path d="m381.5,587.5c1.33,0.67 1.33,0.67 0,0z" fill="#000000" id="svg_452" opacity="0"/>
  </g>
  <g id="svg_453">
   <path d="m383.5,587.5c1.33,0.67 1.33,0.67 0,0z" fill="#000000" id="svg_454" opacity="0"/>
  </g>
  <g id="svg_455">
   <path d="m385.5,587.5c1.33,0.67 1.33,0.67 0,0z" fill="#000000" id="svg_456" opacity="0.01"/>
  </g>
  <g id="svg_457">
   <path d="m389.5,588.5c0.4,-1.02 1.06,-1.19 2,-0.5c-0.59,0.46 -1.26,0.63 -2,0.5z" fill="#000000" id="svg_458" opacity="0"/>
  </g>
  <g id="svg_459">
   <path d="m393.5,587.5c1.33,0.67 1.33,0.67 0,0z" fill="#000000" id="svg_460" opacity="0.01"/>
  </g>
  <g id="svg_461">
   <path d="m397.5,588.5c0.4,-1.02 1.06,-1.19 2,-0.5c-0.59,0.46 -1.26,0.63 -2,0.5z" fill="#000000" id="svg_462" opacity="0"/>
  </g>
  <g id="svg_463">
   <path d="m405.5,588.5c0.4,-1.02 1.06,-1.19 2,-0.5c-0.59,0.46 -1.26,0.63 -2,0.5z" fill="#000000" id="svg_464" opacity="0.01"/>
  </g>
  <g id="svg_465">
   <path d="m426.5,587.5c1.33,0.67 1.33,0.67 0,0z" fill="#000000" id="svg_466" opacity="0.02"/>
  </g>
  <g id="svg_467">
   <path d="m429.5,588.5c0.75,-1.07 1.75,-1.24 3,-0.5c-0.95,0.48 -1.95,0.65 -3,0.5z" fill="#000000" id="svg_468" opacity="0.01"/>
  </g>
  <g id="svg_469">
   <path d="m434.5,587.5c1.33,0.67 1.33,0.67 0,0z" fill="#000000" id="svg_470" opacity="0.01"/>
  </g>
  <g id="svg_471">
   <path d="m436.5,587.5c1.33,0.67 1.33,0.67 0,0z" fill="#000000" id="svg_472" opacity="0.01"/>
  </g>
  <g id="svg_473">
   <path d="m438.5,587.5c1.33,0.67 1.33,0.67 0,0z" fill="#000000" id="svg_474" opacity="0"/>
  </g>
  <g id="svg_475">
   <path d="m446.5,588.5c0.4,-1.02 1.06,-1.19 2,-0.5c-0.59,0.46 -1.26,0.63 -2,0.5z" fill="#000000" id="svg_476" opacity="0"/>
  </g>
  <g id="svg_477">
   <path d="m449.5,587.5c1.33,0.67 1.33,0.67 0,0z" fill="#000000" id="svg_478" opacity="0"/>
  </g>
  <g id="svg_479">
   <path d="m451.5,588.5c1.45,-1.11 3.11,-1.28 5,-0.5c-1.63,0.49 -3.3,0.66 -5,0.5z" fill="#000000" id="svg_480" opacity="0.01"/>
  </g>
  <g id="svg_481">
   <path d="m513.5,588.5c0.4,-1.02 1.06,-1.19 2,-0.5c-0.59,0.46 -1.26,0.63 -2,0.5z" fill="#000000" id="svg_482" opacity="0.01"/>
  </g>
  <g id="svg_483">
   <path d="m516.5,588.5c1.1,-1.1 2.43,-1.26 4,-0.5c-1.29,0.49 -2.63,0.66 -4,0.5z" fill="#000000" id="svg_484" opacity="0.01"/>
  </g>
  <g id="svg_485">
   <path d="m529.5,588.5c0.75,-1.07 1.75,-1.24 3,-0.5c-0.95,0.48 -1.95,0.65 -3,0.5z" fill="#000000" id="svg_486" opacity="0.01"/>
  </g>
  <g id="svg_487">
   <path d="m165.5,613.5c1.33,0.67 1.33,0.67 0,0z" fill="#000000" id="svg_488" opacity="0"/>
  </g>
  <g id="svg_489">
   <path d="m295.5,614.5c1.33,0.67 1.33,0.67 0,0z" fill="#000000" id="svg_490" opacity="0"/>
  </g>
  <g id="svg_491">
   <path d="m315.5,614.5c1.33,0.67 1.33,0.67 0,0z" fill="#000000" id="svg_492" opacity="0"/>
  </g>
  <g id="svg_493">
   <path d="m333.5,615.5c1.1,-1.1 2.43,-1.26 4,-0.5c-1.29,0.49 -2.63,0.66 -4,0.5z" fill="#000000" id="svg_494" opacity="0.01"/>
  </g>
  <g id="svg_495" transform="matrix(1 0 0 1 0 0)">
   <path d="m175.5,643.5c-10.39,-6.46 -21.05,-6.63 -32,-0.5c-10.53,9.32 -14.03,20.82 -10.5,34.5c3.78,14.24 13.12,21.58 28,22c6.93,-0.05 13.09,-2.21 18.5,-6.5c1.66,-1.49 2.66,-3.32 3,-5.5c0.89,-0.76 1.56,-1.76 2,-3c-7.97,-1 -15.97,-1.33 -24,-1c-0.29,-7.15 -0.29,-14.15 0,-21c16.34,-0.17 32.67,0 49,0.5c3,42.66 -17,62.33 -60,59c-6.92,-1.48 -13.59,-3.64 -20,-6.5c-5.29,-3.63 -9.96,-7.96 -14,-13c-7.38,-9.76 -11.05,-21.09 -11,-34c0.59,-14.51 5.59,-27.17 15,-38c15.72,-13.94 34.38,-18.44 56,-13.5c16.81,4.14 27.81,14.47 33,31c-0.15,0.77 -0.48,1.44 -1,2c-7.7,1.51 -15.37,2.85 -23,4c-1.97,-4.49 -4.97,-7.99 -9,-10.5z" fill="#ffffff" id="svg_496" opacity="0.98"/>
  </g>
  <g id="svg_497" transform="matrix(1 0 0 1 0 0)">
   <path d="m266.5,653.5c5.17,-7.66 9.83,-15.66 14,-24c2.77,-4.02 5.43,-8.18 8,-12.5c10.33,-0.67 20.67,-0.67 31,0c-10.73,16.64 -21.06,33.47 -31,50.5c-3.64,4.6 -6.81,9.6 -9.5,15c-0.62,12.41 -0.62,24.75 0,37c-9.73,0.13 -19.56,0.13 -29.5,0c2.66,-12.99 3.16,-25.99 1.5,-39c-3.7,-5.84 -7.53,-11.51 -11.5,-17c0.17,-0.99 -0.16,-1.66 -1,-2c-7.75,-13.17 -15.75,-26.17 -24,-39c-0.74,-1.8 -1.74,-3.47 -3,-5c10.67,-1.33 21.33,-1.33 32,0c6.83,12.99 14.16,25.66 22,38c0.8,-0.46 1.13,-1.12 1,-2z" fill="#ffffff" id="svg_498" opacity="0.98"/>
  </g>
  <g id="svg_499">
   <path d="m418.5,717.5c0.68,-13.4 1.34,-26.9 2,-40.5c0.28,-5.49 -0.22,-10.99 -1.5,-16.5c-8.58,12.83 -16.92,25.83 -25,39c-1.26,1.9 -2.93,3.23 -5,4c-0.83,-0.33 -1.67,-0.67 -2.5,-1c-9.17,-14.33 -18.33,-28.67 -27.5,-43c-1.08,1.62 -1.58,3.45 -1.5,5.5c0.46,17.36 0.8,35.36 1,54c-0.52,0.69 -1.19,1.19 -2,1.5c-8.54,-0.6 -16.87,-0.93 -25,-1c-1.08,-0.87 -1.25,-1.87 -0.5,-3c0.33,0.67 0.67,1.33 1,2c0.5,-34 0.67,-68 0.5,-102c9.69,-0.33 19.36,0 29,1c9.08,15.17 18.42,30.17 28,45c10.08,-14.5 19.42,-29.5 28,-45c9.32,-1.16 18.65,-1.33 28,-0.5c1,33.83 1,68.33 0,103.5c-8.59,-1.09 -16.75,-1.09 -24.5,0c-1.05,-0.87 -1.88,-1.87 -2.5,-3z" fill="#ffffff" id="svg_500" opacity="0.97"/>
  </g>
  <g id="svg_501">
   <path d="m329.5,618.5c2.5,0.01 2.67,0.68 0.5,2c-0.46,-0.59 -0.63,-1.26 -0.5,-2z" fill="#000000" id="svg_502" opacity="0"/>
  </g>
  <g id="svg_503">
   <path d="m214.5,622.5c-0.67,0.67 -0.67,0.67 0,0z" fill="#000000" id="svg_504" opacity="0"/>
  </g>
  <g id="svg_505">
   <path d="m366.5,623.5c1.33,0.67 1.33,0.67 0,0z" fill="#000000" id="svg_506" opacity="0"/>
  </g>
  <g id="svg_507">
   <path d="m280.5,629.5c-0.67,-1.33 -0.67,-1.33 0,0z" fill="#000000" id="svg_508" opacity="0"/>
  </g>
  <g id="svg_509">
   <path d="m330.5,628.5c1.33,0.67 1.33,0.67 0,0z" fill="#000000" id="svg_510" opacity="0"/>
  </g>
  <g id="svg_511">
   <path d="m118.5,630.5c-0.67,-1.33 -0.67,-1.33 0,0z" fill="#000000" id="svg_512" opacity="0"/>
  </g>
  <g id="svg_513">
   <path d="m279.5,629.5c-0.67,0.67 -0.67,0.67 0,0z" fill="#000000" id="svg_514" opacity="0.01"/>
  </g>
  <g id="svg_515">
   <path d="m277.5,631.5c1.33,0.67 1.33,0.67 0,0z" fill="#000000" id="svg_516" opacity="0"/>
  </g>
  <g id="svg_517">
   <path d="m330.5,632.5c1.15,4.15 1.31,8.48 0.5,13c-0.5,-4.32 -0.67,-8.65 -0.5,-13z" fill="#000000" id="svg_518" opacity="0.01"/>
  </g>
  <g id="svg_519">
   <path d="m401.5,639.5c1.33,0.67 1.33,0.67 0,0z" fill="#000000" id="svg_520" opacity="0"/>
  </g>
  <g id="svg_521">
   <path d="m150.5,640.5c1.33,0.67 1.33,0.67 0,0z" fill="#000000" id="svg_522" opacity="0"/>
  </g>
  <g id="svg_523">
   <path d="m174.5,643.5c-0.67,0.67 -0.67,0.67 0,0z" fill="#000000" id="svg_524" opacity="0.01"/>
  </g>
  <g id="svg_525">
   <path d="m106.5,644.5c1.33,0.67 1.33,0.67 0,0z" fill="#000000" id="svg_526" opacity="0"/>
  </g>
  <g id="svg_527">
   <path d="m330.5,647.5c1.12,1.79 1.29,3.79 0.5,6c-0.5,-1.97 -0.66,-3.97 -0.5,-6z" fill="#000000" id="svg_528" opacity="0.01"/>
  </g>
  <g id="svg_529">
   <path d="m266.5,653.5c-0.67,-1.33 -0.67,-1.33 0,0z" fill="#000000" id="svg_530" opacity="0"/>
  </g>
  <g id="svg_531">
   <path d="m330.5,655.5c1.11,1.45 1.28,3.11 0.5,5c-0.49,-1.63 -0.66,-3.3 -0.5,-5z" fill="#000000" id="svg_532" opacity="0.01"/>
  </g>
  <g id="svg_533">
   <path d="m133.5,657.5c1.33,0.67 1.33,0.67 0,0z" fill="#000000" id="svg_534" opacity="0.01"/>
  </g>
  <g id="svg_535">
   <path d="m234.5,657.5c1.33,0.67 1.33,0.67 0,0z" fill="#000000" id="svg_536" opacity="0.01"/>
  </g>
  <g id="svg_537">
   <path d="m162.5,660.5c1.33,0.67 1.33,0.67 0,0z" fill="#000000" id="svg_538" opacity="0"/>
  </g>
  <g id="svg_539">
   <path d="m169.5,660.5c1.33,0.67 1.33,0.67 0,0z" fill="#000000" id="svg_540" opacity="0"/>
  </g>
  <g id="svg_541">
   <path d="m178.5,660.5c1.33,0.67 1.33,0.67 0,0z" fill="#000000" id="svg_542" opacity="0"/>
  </g>
  <g id="svg_543">
   <path d="m185.5,660.5c1.33,0.67 1.33,0.67 0,0z" fill="#000000" id="svg_544" opacity="0"/>
  </g>
  <g id="svg_545">
   <path d="m187.5,660.5c1.33,0.67 1.33,0.67 0,0z" fill="#000000" id="svg_546" opacity="0"/>
  </g>
  <g id="svg_547">
   <path d="m193.5,660.5c1.33,0.67 1.33,0.67 0,0z" fill="#000000" id="svg_548" opacity="0"/>
  </g>
  <g id="svg_549">
   <path d="m199.5,660.5c1.33,0.67 1.33,0.67 0,0z" fill="#000000" id="svg_550" opacity="0.01"/>
  </g>
  <g id="svg_551">
   <path d="m201.5,661.5c0.4,-1.02 1.06,-1.19 2,-0.5c-0.59,0.46 -1.26,0.63 -2,0.5z" fill="#000000" id="svg_552" opacity="0.01"/>
  </g>
  <g id="svg_553">
   <path d="m206.5,661.5c0.4,-1.02 1.06,-1.19 2,-0.5c-0.59,0.46 -1.26,0.63 -2,0.5z" fill="#000000" id="svg_554" opacity="0.01"/>
  </g>
  <g id="svg_555">
   <path d="m238.5,661.5c-0.67,0.67 -0.67,0.67 0,0z" fill="#000000" id="svg_556" opacity="0"/>
  </g>
  <g id="svg_557">
   <path d="m239.5,663.5c-0.67,0.67 -0.67,0.67 0,0z" fill="#000000" id="svg_558" opacity="0"/>
  </g>
  <g id="svg_559">
   <path d="m330.5,663.5c1.33,0.67 1.33,0.67 0,0z" fill="#000000" id="svg_560" opacity="0"/>
  </g>
  <g id="svg_561">
   <path d="m157.5,665.5c1.33,0.67 1.33,0.67 0,0z" fill="#000000" id="svg_562" opacity="0.01"/>
  </g>
  <g id="svg_563">
   <path d="m330.5,665.5c1.1,1.1 1.26,2.43 0.5,4c-0.49,-1.29 -0.66,-2.63 -0.5,-4z" fill="#000000" id="svg_564" opacity="0"/>
  </g>
  <g id="svg_565">
   <path d="m288.5,667.5c1.33,0.67 1.33,0.67 0,0z" fill="#000000" id="svg_566" opacity="0"/>
  </g>
  <g id="svg_567">
   <path d="m330.5,672.5c1.33,0.67 1.33,0.67 0,0z" fill="#000000" id="svg_568" opacity="0"/>
  </g>
  <g id="svg_569">
   <path d="m102.5,673.5c1.33,0.67 1.33,0.67 0,0z" fill="#000000" id="svg_570" opacity="0"/>
  </g>
  <g id="svg_571">
   <path d="m330.5,675.5c1.07,0.75 1.24,1.75 0.5,3c-0.48,-0.95 -0.65,-1.95 -0.5,-3z" fill="#000000" id="svg_572" opacity="0"/>
  </g>
  <g id="svg_573">
   <path d="m102.5,677.5c1.33,0.67 1.33,0.67 0,0z" fill="#000000" id="svg_574" opacity="0"/>
  </g>
  <g id="svg_575">
   <path d="m330.5,679.5c1.12,1.79 1.29,3.79 0.5,6c-0.5,-1.97 -0.66,-3.97 -0.5,-6z" fill="#000000" id="svg_576" opacity="0.01"/>
  </g>
  <g id="svg_577">
   <path d="m370.5,680.5c1.33,0.67 1.33,0.67 0,0z" fill="#000000" id="svg_578" opacity="0.01"/>
  </g>
  <g id="svg_579">
   <path d="m181.5,687.5c-0.67,-1.33 -0.67,-1.33 0,0z" fill="#000000" id="svg_580" opacity="0"/>
  </g>
  <g id="svg_581">
   <path d="m330.5,687.5c1.33,0.67 1.33,0.67 0,0z" fill="#000000" id="svg_582" opacity="0"/>
  </g>
  <g id="svg_583">
   <path d="m330.5,691.5c1.33,0.67 1.33,0.67 0,0z" fill="#000000" id="svg_584" opacity="0"/>
  </g>
  <g id="svg_585">
   <path d="m106.5,692.5c1.33,0.67 1.33,0.67 0,0z" fill="#000000" id="svg_586" opacity="0"/>
  </g>
  <g id="svg_587">
   <path d="m330.5,693.5c1.33,0.67 1.33,0.67 0,0z" fill="#000000" id="svg_588" opacity="0"/>
  </g>
  <g id="svg_589">
   <path d="m330.5,695.5c1.02,0.4 1.19,1.06 0.5,2c-0.46,-0.59 -0.63,-1.26 -0.5,-2z" fill="#000000" id="svg_590" opacity="0"/>
  </g>
  <g id="svg_591">
   <path d="m110.5,699.5c1.33,0.67 1.33,0.67 0,0z" fill="#000000" id="svg_592" opacity="0"/>
  </g>
  <g id="svg_593">
   <path d="m114.5,702.5c-0.67,0.67 -0.67,0.67 0,0z" fill="#000000" id="svg_594" opacity="0.01"/>
  </g>
  <g id="svg_595">
   <path d="m330.5,703.5c1.02,0.4 1.19,1.06 0.5,2c-0.46,-0.59 -0.63,-1.26 -0.5,-2z" fill="#000000" id="svg_596" opacity="0"/>
  </g>
  <g id="svg_597">
   <path d="m447.5,707.5c1.33,0.67 1.33,0.67 0,0z" fill="#000000" id="svg_598" opacity="0"/>
  </g>
  <g id="svg_599">
   <path d="m330.5,712.5c1.33,0.67 1.33,0.67 0,0z" fill="#000000" id="svg_600" opacity="0"/>
  </g>
  <g id="svg_601">
   <path d="m128.5,715.5c-0.67,0.67 -0.67,0.67 0,0z" fill="#000000" id="svg_602" opacity="0.01"/>
  </g>
  <g id="svg_603">
   <path d="m359.5,716.5c1.33,0.67 1.33,0.67 0,0z" fill="#000000" id="svg_604" opacity="0.01"/>
  </g>
  <g id="svg_605">
   <path d="m418.5,717.5c-0.67,-1.33 -0.67,-1.33 0,0z" fill="#000000" id="svg_606" opacity="0"/>
  </g>
  <g id="svg_607">
   <path d="m138.5,720.5c1.33,0.67 1.33,0.67 0,0z" fill="#000000" id="svg_608" opacity="0"/>
  </g>
  <g id="svg_609">
   <path d="m249.5,721.5c1.33,0.67 1.33,0.67 0,0z" fill="#000000" id="svg_610" opacity="0"/>
  </g>
  <g id="svg_611">
   <path d="m276.5,721.5c1.33,0.67 1.33,0.67 0,0z" fill="#000000" id="svg_612" opacity="0.01"/>
  </g>
  <g id="svg_613">
   <path d="m424.5,721.5c1.33,0.67 1.33,0.67 0,0z" fill="#000000" id="svg_614" opacity="0"/>
  </g>
  <g id="svg_615">
   <path d="m150.5,723.5c1.33,0.67 1.33,0.67 0,0z" fill="#000000" id="svg_616" opacity="0.01"/>
  </g>
  <g id="svg_617">
   <path d="m165.5,723.5c1.33,0.67 1.33,0.67 0,0z" fill="#000000" id="svg_618" opacity="0"/>
  </g>
 </g>
</svg>